<svg id="Layer_1" data-name="Layer 1" xmlns="http://www.w3.org/2000/svg" viewBox="0 0 2048 2048"><defs><style>.cls-1{fill:#45484c;}.cls-2{fill:#d3d3d3;}.cls-3{fill:#fefefe;}.cls-4{fill:#0b0808;}.cls-5,.cls-8{fill:#f15a29;}.cls-6{fill:#959595;}.cls-7{fill:#fff;}.cls-8{stroke:#fff;stroke-miterlimit:10;stroke-width:0.5px;}</style></defs><path class="cls-1" d="M1344.21,1581.46a366.46,366.46,0,0,1-58.42,44.9c-24.89,42.2-51.39,110.9-70.87,168.78-13.52,39.5-23.26,73.58-27.59,90.35,0,0-1.62,6.49-2.7,11.36a2,2,0,0,1-.54,1.62c25.42-60,104.4-139,178.52-166.62,19.47-10.82,43.27-18.39,72-20.56a369.81,369.81,0,0,1,41.65-1.08c31.92,1.08,57.88,8.66,83.31,24.89-3.25-14.07-6.49-28.67-10.28-42.74-26-97.37-60-173.11-120.64-211-18.39,28.67-40.57,54.1-64.37,79.52C1357.74,1567.94,1351.25,1575,1344.21,1581.46Z"/><path class="cls-2" d="M838.41,1789.19c14.6,41.66,25.42,78.44,30.29,96.3,0,0,1.62,7.57,2.7,12.44h313.23c0-.54.54-1.08.54-1.62,1.08-4.87,2.7-11.36,2.7-11.36,4.33-16.77,14.61-50.86,27.59-90.35C1071,1833.55,940.11,1818.41,838.41,1789.19Z"/><path class="cls-3" d="M1214.92,1794.66c19.48-57.89,46-126.59,70.87-168.79-102.24,62.22-219.64,61.13-333.78,53.56-61.13-4.33-124.42-19.47-182.85-49.77,24.35,39.49,49.77,103.87,68.7,159.59C940.11,1818.46,1071,1833.61,1214.92,1794.66Z"/><path class="cls-3" d="M1184.09,1897.93h112.52c-13.53-63.84,4.87-133.08,66-166.62-73.58,27-152.56,106.57-178.52,166.62,0-.54.54-1.08.54-1.62a2.67,2.67,0,0,1-.54,1.62Z"/><path class="cls-1" d="M619.31,1710.21c28.67,2.17,52.48,9.74,72,20.56,74.11,27.59,153.1,107.11,178.52,166.62h1.62c-1.08-4.87-2.7-12.44-2.7-12.44-4.87-17.86-15.69-54.64-30.29-96.3-19.48-55.72-44.36-120.09-68.71-159.58a409,409,0,0,1-68.7-43.82c-10.82-8.66-21.64-17.85-31.92-27.59a465.87,465.87,0,0,1-59-68.16c-52.48,40-83.31,112-107.12,201.24-3.78,15.14-7.57,29.75-10.27,44.9,25.42-17.85,51.93-25.43,84.39-27.05Q595.78,1708.59,619.31,1710.21Z"/><path class="cls-3" d="M690.72,1730.77c61.13,34.08,79.52,102.78,66,166.62H869.24C843.82,1837.88,764.83,1758.36,690.72,1730.77Z"/><path class="cls-4" d="M1184.09,1897.93H756.72a163.2,163.2,0,0,1-7.57,26.51h555.57a213.7,213.7,0,0,1-7.57-26.51Z"/><path class="cls-5" d="M1381.54,1419.17c-28.13,26-57.34,49.23-88.72,68.7-90.34,74.66-192,85.48-277,89.8-95.75,0-180.14-32.45-271.56-91.42-2.17-1.62-4.87-3.25-7-4.87v-.54a561.49,561.49,0,0,1-78.44-61.67c-32.46-30.29-74.65-69.24-92.5-110.36-1.63-4.33-5.95-13-11.36-23.26-2.17,47.61,2.7,96.83,15.68,130.91,9.74,26,23.81,50.86,40,73,18.39,26,39.49,49.22,59,68.16,10.28,9.74,21.1,18.93,31.92,27.59,21.64,17.31,44.9,31.37,68.7,43.82,58.43,29.75,121.18,45.44,182.85,49.77,114.15,8.11,231.54,9.19,333.78-53.56,20-12.44,40-27,58.43-44.9,7-6.49,13.52-13,20-20,23.8-25.42,45.44-51.39,64.38-79.52,28.13-42.74,48.14-92,54.63-156.34,1.63-16.77,2.71-33,2.71-48.69C1456.19,1327.2,1424.82,1378.6,1381.54,1419.17Z"/><path class="cls-1" d="M1551.41,694.81c28.67,7.57,77.35,7,110.89,19.47-60.58-57.34-95.21-141.73-146.06-210.43,75.2-116.31,49.23-366.24,1.63-444.68-43.28-70.87-67.63-74.11-98.46-6-27.59,59.5-64.92,82.23-102.25,134.16-33,46.52-84.39,119.55-97.37,182.31-123.34-23.81-241.27-27.05-367.32-14.07-11.36,1.08-23.26,2.16-34.62,3.25-16.23-60.05-63.29-127.67-94.67-171.49-37.33-51.93-74.66-74.66-102.24-134.16-31.38-67.62-55.18-64.38-98.46,6-48.15,77.9-73.57,328.37,1.62,444.68C473.25,572,439.17,656.94,378.58,713.74c33.54-12.44,82.23-11.36,110.9-19.47-36.25,46.52-69.24,87.09-93.59,134.7C382.37,855.48,371,884.15,364,917.15c24.89-9.2,50.31-22.18,73-34.62-38.95,73.57-56.81,238,17.31,300.24,7.57-25.43,16.77-44.91,34.08-65.46,7,27,6.49,52.47,20.55,79.52,8.66,16.77,31.92,60.05,46.53,88.72,5.41,10.28,9.74,18.93,11.36,23.26,17.85,41.12,60,80.07,92.5,110.36,23.81,23.26,50.31,43.82,77.36,62.21-44.36-62.75-196.37-321.34-96.83-463.61,24.34-34.62,57.34-40.57,80.6-43.82-102.78-69.78-134.7-136.32-134.7-200.7-.54-67.62,29.21-224,156.34-227.21,163.38-4.33,225.59,153.64,239.65,206.11,6-21.64,30.84-51.39,34.63-82.77v0c3.78,31.38,28.67,61.13,34.62,82.77,21.64-70.32,76.27-220.71,231-222.88a132.13,132.13,0,0,1,14.61.54c27.05,2.71,49.77,13.53,68.7,29.22,63.29,52.47,86,159.58,82.23,209.35-3.79,63.3-35.71,134.16-134.7,188.26,23.26,3.25,57.88,29.75,80.06,61.13,106,151.47-52.47,405.19-96.83,467.4-1.08,1.08-2.17,1.62-3.25,2.7a556.78,556.78,0,0,0,88.72-68.7c43.28-40.57,74.11-92,104.41-142.82,6.49-11.36,13-22.18,19.47-33,16.23-26.5,20-59,37.33-84.39,15.69,13,14.61,39.49,14.61,59,20-30.3,39.49-68.71,51.39-105.49,11.9-37.87,31.92-74.66,31.92-115.23,0-24.88-12.45-101.16-36.79-114.68a477,477,0,0,0,73,34.62c-7-33-18.39-61.67-31.92-88.18C1620.65,781.91,1587.65,740.79,1551.41,694.81ZM542.49,126.25c2.17,0,4.33-.54,6.5-.54,55.72.54,107.11,114.14,140.11,150.93,7,8.11,16.77,18.93,26.51,31.38,23.26,29.75,75.73,92.5,59,133.61-13.52,33-59,35.17-88.18,44.91-23.26,7.57-33.54,27.59-54.64,35.7-54.63,21.64-75.19-23.8-88.71-66C510.58,354.54,516.53,229.57,542.49,126.25Zm721.66,309.43c-.54-47.06,32.46-92,60.59-127.12,9.74-12.45,19.47-23.27,26.51-31.38,33-37.33,83.85-150.93,140.11-150.93,2.16,0,4.33.54,6.49.54,26,102.78,31.92,227.75,0,330-13,41.12-28.67,89.26-82.23,67.08-17.31-7-31.37-22.72-48.69-29.21C1329.07,481.67,1265.23,488.7,1264.15,435.68Z"/><path class="cls-6" d="M631.21,522.78c21.1-8.65,31.38-28.67,54.64-35.7,29.21-9.2,74.66-11.36,88.18-44.9,16.77-40.58-35.7-103.87-59-133.62-9.73-12.45-19.47-23.27-26.5-31.38-33-37.33-83.85-150.93-140.11-150.93-2.17,0-4.33.54-6.5.54-26,102.78-31.91,227.75,0,330C555.48,499,576.58,544.42,631.21,522.78Z"/><path class="cls-6" d="M1415.62,523.86c53.56,22.18,69.25-26,82.23-67.08,31.92-102.24,26-227.21,0-330-2.16,0-4.33-.54-6.49-.54-55.72.54-107.11,114.14-140.11,150.93-7,8.11-16.77,18.93-26.51,31.38-28.13,35.16-61.13,80.06-60.59,127.12,1.08,53,64.92,45.45,102.24,59C1384.25,501.14,1398.31,516.83,1415.62,523.86Z"/><path class="cls-3" d="M744.28,1486.25c91.42,59,175.27,91.42,271.56,91.42,84.94-4.32,186.64-15.14,277-89.8,1.08-1.08,2.17-1.62,3.25-2.7,44.36-62.21,202.86-315.93,96.83-467.4-22.18-31.92-56.8-58.43-80.06-61.13,99-54.1,130.91-125,135.24-188.26,3.25-49.77-19.48-156.88-82.23-209.35-18.93-15.69-42.19-26.51-68.7-29.22a132.13,132.13,0,0,0-14.61-.54c-154.71,2.17-209.35,152.56-231,222.88-6-21.64-30.84-51.39-34.62-82.77v0c-3.79,31.38-28.68,61.13-34.63,82.77C968.24,699.68,906.57,541.71,742.65,546c-126.58,3.25-156.34,160.13-156.34,227.21.54,64.38,31.92,130.92,134.7,200.7-23.26,3.25-56.26,9.2-80.6,43.82-99.54,142.27,51.93,400.86,96.29,463.61v.54A34.61,34.61,0,0,1,744.28,1486.25Zm500.39-101.16c-87.63,94.13-143.89,73.57-171.48,67.08,41.65-24.89,59-28.67,120.63-89.8,27-26.51,81.69-104.95,50.85-181.77C1328.53,1202.24,1284.71,1341.81,1244.67,1385.09ZM1216,665.6c36.79,0,66.54,55.72,66.54,124.42S1252.79,914.44,1216,914.44s-66.54-55.72-66.54-124.42S1179.76,665.6,1216,665.6ZM952.55,1172c56.8-33,249.39-1.63,171.49,95.21C1055.33,1352.63,810.82,1253.63,952.55,1172ZM808.65,665.6c36.79,0,66.54,55.72,66.54,124.42s-29.75,124.42-66.54,124.42S742.11,858.72,742.11,790,771.87,665.6,808.65,665.6Z"/><path class="cls-4" d="M1124,1267.16c78.44-97.38-114.15-128.21-171.49-95.21C810.82,1253.63,1055.33,1352.63,1124,1267.16Zm-200.7-47.61c1.62-14.06,26-31.38,53.55-38.41s48.69-1.08,46.53,13.53c-1.63,14.06-26,31.37-53.56,38.41C942.27,1239.57,921.72,1233.62,923.34,1219.55Z"/><path class="cls-4" d="M1216,914.44c36.79,0,66.54-55.72,66.54-124.42S1252.79,665.6,1216,665.6s-66.54,55.72-66.54,124.42S1179.76,914.44,1216,914.44Zm-43.82-145.52c-12.44-8.65-9.73-33.54,4.87-55.18,15.15-21.64,36.79-31.91,49.23-23.26s9.74,33.54-4.87,55.18S1184.63,777.58,1172.18,768.92Z"/><path class="cls-4" d="M808.65,914.44c36.79,0,66.54-55.72,66.54-124.42S845.44,665.6,808.65,665.6,742.11,721.32,742.11,790,771.87,914.44,808.65,914.44ZM765.92,768.92c-12.45-8.65-9.74-33.54,4.86-55.18,15.15-21.64,36.79-31.91,49.23-23.26s9.74,33.54-4.87,55.18S778.36,777.58,765.92,768.92Z"/><path class="cls-4" d="M1244.13,1180.6c30.84,76.28-23.8,155.26-50.85,181.77-61.13,61.13-78.44,64.91-120.09,89.8,28.13,6.49,83.85,27,171.48-67.62C1284.71,1341.81,1328.53,1202.24,1244.13,1180.6Z"/><path class="cls-7" d="M815.14,745.66c15.15-21.64,17.31-46,4.87-55.18-12.44-8.65-34.08,1.62-49.23,23.26s-17.31,46-4.86,55.18C778.36,777.58,800.54,767.3,815.14,745.66Z"/><path class="cls-7" d="M1221.41,745.66c15.15-21.64,17.31-46,4.87-55.18-12.44-8.65-34.08,1.62-49.23,23.26s-17.31,46-4.87,55.18C1184.63,777.58,1206.27,767.3,1221.41,745.66Z"/><path class="cls-7" d="M970.4,1232.53c27.59-7,51.39-24.34,53.56-38.4,1.62-14.07-18.94-20-46.52-13.53S926,1205,923.88,1219,942.27,1239.57,970.4,1232.53Z"/><path class="cls-7" d="M1434.56,1710.21c-28.68,2.17-52.48,9.74-72,20.56-61.13,34.08-79.53,102.78-66,166.62a163.2,163.2,0,0,0,7.57,26.51c16.77,46.52,50.31,87.09,96.29,104.94,2.17.54,4.33,1.63,6.5,2.17,5.41-11.36,13-20.56,16.77-33,6-17.85,11.36-36.25,17.85-54.1,2.7-7,4.87-13.52,11.9-17.85,17.85,34.08,4.33,74.11-6,108.19-.54,1.09-.54,2.71-1.08,3.79a177.72,177.72,0,0,0,62.75-9.74c0-.54.54-1.08.54-1.62,5.41-14.07,14.61-24.34,19.48-39,6-17.85,11.36-36.25,17.85-54.1,2.7-7,4.87-13.52,11.9-17.85,14.61,27.59,8.65,59,0,88.18a179.91,179.91,0,0,0,22.18-15.15c92-67.08,82.77-154.72,9.74-228.83a236.21,236.21,0,0,0-31.92-27c-24.89-16.77-51.39-23.8-83.31-24.88C1463.23,1708.59,1449.7,1709.13,1434.56,1710.21Z"/><path class="cls-1" d="M1559,1916.32c-7,4.33-9.2,10.82-11.9,17.85-7,17.86-11.9,36.25-17.85,54.1-4.87,14.61-14.07,24.89-19.48,39,0,.54-.54,1.08-.54,1.62,15.69-5.41,32.46-13.52,49.77-23.8C1567.63,1975.83,1573.59,1944.45,1559,1916.32Z"/><path class="cls-1" d="M1454,1926.6c-7,4.33-9.2,10.82-11.9,17.85-7,17.85-11.9,36.25-17.85,54.1-3.79,12.44-11.36,21.64-16.77,33a134.22,134.22,0,0,0,39.49,7,35.33,35.33,0,0,1,1.08-3.79C1458.36,2000.17,1471.88,1960.68,1454,1926.6Z"/><path class="cls-7" d="M690.72,1730.77c-19.47-10.82-43.28-18.39-72-20.56a398.78,398.78,0,0,0-43.28-1.08c-31.91,1.62-58.42,9.2-84.39,27a238.86,238.86,0,0,0-29.21,24.88c-73,74.12-82.23,161.75,9.74,228.83,7.57,5.41,15.14,10.28,22.18,15.15-8.66-29.21-14.61-60.59,0-88.18,7,4.33,9.19,10.82,11.9,17.85,7,17.86,11.9,36.25,17.85,54.1,4.87,14.61,14.07,24.89,19.48,39,0,.54.54,1.08.54,1.62,22.18,7.58,43.27,10.82,62.75,9.74a34.41,34.41,0,0,0-1.08-3.78c-10.28-34.09-23.81-74.12-6-108.2,7,4.33,9.19,10.82,11.9,17.85,7,17.86,11.9,36.25,17.85,54.1,3.79,12.44,11.36,21.64,16.77,33,2.16-.54,4.33-1.62,6.49-2.16,46-17.86,79.52-58.43,96.29-105a213.73,213.73,0,0,0,7.58-26.51C770.24,1833.55,751.85,1764.85,690.72,1730.77Z"/><path class="cls-1" d="M524.64,1988.81c-5.95-17.85-11.36-36.24-17.85-54.1-2.7-7-4.87-13.52-11.9-17.85-14.61,27.59-8.66,59,0,88.18,17.31,10.28,33.54,18.39,49.77,23.8,0-.54-.54-1.08-.54-1.62C538.71,2013.7,529,2002.88,524.64,1988.81Z"/><path class="cls-1" d="M611.74,1944.45c-2.71-7-4.87-13.52-11.9-17.85-17.85,34.08-4.33,74.11,5.95,108.19.54,1.09.54,2.71,1.08,3.79a154.47,154.47,0,0,0,39.49-7c-5.41-11.36-13-20.56-16.77-33C623.64,1980.16,618.77,1962.3,611.74,1944.45Z"/><circle class="cls-5" cx="1023.57" cy="1734.25" r="53.23"/><circle class="cls-8" cx="1023.57" cy="1734.25" r="45.86"/><path class="cls-7" d="M1034,1726.4c1.79,0,3.5,0,5.22,0,.38,0,.5,0,.43.47-.22,1.27-.39,2.54-.56,3.81,0,.32-.18.4-.49.4-2.54,0-5.08,0-7.61,0a.78.78,0,0,0-.75.42c-.85,1.32-1.66,2.68-2.39,4.08l-.14.33h.53c3.18,0,6.35,0,9.53,0,.4,0,.57,0,.48.52-.25,1.27-.42,2.56-.58,3.85,0,.39-.18.5-.59.5-3.68,0-7.36,0-11,0a.49.49,0,0,0-.56.4,56.25,56.25,0,0,0-2.56,10.71c-.26,1.71-.53,3.42-.77,5.13,0,.3-.17.34-.43.34h-8.54c-.14,0-.37.12-.32-.24a93.28,93.28,0,0,1,2.46-12.93c.34-1.12.71-2.23,1.14-3.39h-2c-1.31,0-2.62,0-3.94,0-.36,0-.41-.12-.36-.44.22-1.38.43-2.77.62-4.15,0-.31.21-.27.4-.27h7.08c.19,0,.36,0,.48-.23a52.69,52.69,0,0,1,2.82-4.6h-.52c-3,0-6,0-9,0-.39,0-.48-.11-.41-.46.2-1.26.41-2.5.56-3.76.06-.41.23-.45.57-.45,4,0,7.91,0,11.86,0a.86.86,0,0,0,.75-.36,88.37,88.37,0,0,1,6.66-7.3,2.24,2.24,0,0,1,.39-.27l-.09-.14h-22.9c-.34,0-.51,0-.42-.46.34-2.11.63-4.22.92-6.32,0-.37.22-.37.51-.37h22.1c3.16,0,6.3,0,9.45,0,.34,0,.44,0,.38.43-.33,2.12-.63,4.24-.93,6.37a1,1,0,0,1-.35.64c-2.42,2.4-4.74,4.91-6.92,7.55A2.58,2.58,0,0,0,1034,1726.4Z"/></svg>