<svg id="Layer_1" data-name="Layer 1" xmlns="http://www.w3.org/2000/svg" viewBox="0 0 1024 1024"><defs><style>.cls-1{fill:#45484c;}.cls-2{fill:#d3d3d3;}.cls-3{fill:#fefefe;}.cls-4{fill:#0b0808;}.cls-5,.cls-8{fill:#f15a29;}.cls-6{fill:#959595;}.cls-7{fill:#fff;}.cls-8{stroke:#fff;stroke-miterlimit:10;stroke-width:0.5px;}</style></defs><path class="cls-1" d="M674.3,791.72a183,183,0,0,1-29.22,22.45c-12.44,21.1-25.7,55.46-35.44,84.41-6.76,19.74-11.63,36.79-13.8,45.17,0,0-.81,3.25-1.35,5.68a1,1,0,0,1-.27.82c12.72-30,52.21-69.53,89.27-83.33,9.74-5.41,21.65-9.19,36-10.28a185,185,0,0,1,20.83-.54c16,.54,29,4.33,41.67,12.45-1.63-7-3.25-14.34-5.14-21.37-13-48.7-30-86.57-60.33-105.51-9.2,14.34-20.29,27.05-32.19,39.77C681.06,785,677.81,788.47,674.3,791.72Z"/><path class="cls-2" d="M421.36,895.6c7.3,20.83,12.71,39.23,15.15,48.15,0,0,.81,3.79,1.35,6.23H594.49c0-.27.27-.55.27-.82.54-2.43,1.36-5.68,1.36-5.68,2.16-8.38,7.3-25.43,13.79-45.17C537.68,917.78,472.21,910.21,421.36,895.6Z"/><path class="cls-3" d="M609.64,898.33c9.74-28.94,23-63.3,35.44-84.4C594,845,535.25,844.5,478.17,840.71,447.6,838.55,416,831,386.73,815.82c12.17,19.75,24.89,51.94,34.36,79.81C472.21,910.24,537.68,917.81,609.64,898.33Z"/><path class="cls-3" d="M594.22,950h56.27c-6.76-31.93,2.44-66.55,33-83.33C646.7,880.18,607.21,920,594.22,950c0-.27.27-.55.27-.82a1.36,1.36,0,0,1-.27.82Z"/><path class="cls-1" d="M311.79,856.1c14.34,1.09,26.24,4.87,36,10.28,37.06,13.8,76.56,53.57,89.28,83.33h.81c-.54-2.44-1.35-6.23-1.35-6.23-2.44-8.92-7.85-27.32-15.15-48.15-9.74-27.86-22.19-60.06-34.36-79.81a204,204,0,0,1-34.36-21.91c-5.41-4.33-10.82-8.93-16-13.79a233.07,233.07,0,0,1-29.49-34.09c-26.24,20-41.66,56-53.56,100.63-1.89,7.58-3.79,14.88-5.14,22.46,12.71-8.93,26-12.72,42.2-13.53Q300,855.29,311.79,856.1Z"/><path class="cls-3" d="M347.5,866.38c30.57,17,39.77,51.4,33,83.33h56.27C424.06,920,384.56,880.18,347.5,866.38Z"/><path class="cls-4" d="M594.22,950H380.51a82.74,82.74,0,0,1-3.79,13.25H654.55A107.29,107.29,0,0,1,650.76,950Z"/><path class="cls-5" d="M693,710.56a294.82,294.82,0,0,1-44.36,34.36c-45.18,37.33-96,42.74-138.51,44.9-47.88,0-90.09-16.23-135.81-45.71-1.08-.82-2.43-1.63-3.51-2.44v-.27a281.24,281.24,0,0,1-39.23-30.84c-16.23-15.15-37.33-34.63-46.26-55.19-.81-2.16-3-6.49-5.68-11.63-1.08,23.81,1.35,48.43,7.85,65.47a154.86,154.86,0,0,0,20,36.52A250.54,250.54,0,0,0,337,779.82c5.14,4.86,10.55,9.46,16,13.79a210.32,210.32,0,0,0,34.36,21.91,238.07,238.07,0,0,0,91.44,24.89c57.08,4.06,115.78,4.6,166.91-26.78a172.22,172.22,0,0,0,29.22-22.45c3.51-3.25,6.76-6.5,10-10A319.19,319.19,0,0,0,717,741.4c14.07-21.37,24.08-46,27.32-78.18.81-8.39,1.36-16.5,1.36-24.35C730.3,664.57,714.61,690.27,693,710.56Z"/><path class="cls-1" d="M777.91,348.33c14.34,3.79,38.68,3.51,55.46,9.74-30.3-28.68-47.62-70.88-73-105.24,37.61-58.16,24.62-183.14.82-222.37C739.49-5,727.32-6.6,711.9,27.48c-13.8,29.76-32.46,41.12-51.13,67.1-16.5,23.26-42.2,59.78-48.69,91.16-61.68-11.9-120.66-13.52-183.69-7l-17.31,1.62c-8.12-30-31.66-63.84-47.35-85.75-18.66-26-37.33-37.34-51.13-67.1-15.69-33.81-27.59-32.19-49.23,3-24.08,39-36.79,164.21.81,222.37-25.43,34.09-42.47,76.56-72.77,105,16.77-6.23,41.12-5.68,55.46-9.74-18.13,23.26-34.63,43.55-46.8,67.36a176.3,176.3,0,0,0-16,44.09c12.44-4.6,25.15-11.09,36.52-17.31-19.48,36.79-28.41,119,8.65,150.14,3.79-12.71,8.39-22.45,17.05-32.73,3.51,13.52,3.24,26.24,10.28,39.77,4.32,8.38,16,30,23.26,44.36,2.71,5.14,4.87,9.47,5.68,11.63,8.93,20.56,30,40,46.26,55.19a283,283,0,0,0,38.69,31.11C348.31,710.29,272.3,581,322.07,509.83c12.18-17.31,28.68-20.29,40.31-21.91C311,453,295,419.75,295,387.55c-.27-33.81,14.61-112,78.18-113.62C454.9,271.77,486,350.76,493,377c3-10.82,15.42-25.7,17.32-41.39v0c1.89,15.69,14.34,30.57,17.31,41.39,10.82-35.16,38.15-110.37,115.52-111.45a66,66,0,0,1,7.3.27,62.77,62.77,0,0,1,34.36,14.61c31.65,26.24,43,79.8,41.12,104.69-1.9,31.65-17.86,67.09-67.36,94.14,11.63,1.63,28.94,14.88,40,30.57,53,75.75-26.24,202.62-48.42,233.74-.54.54-1.08.81-1.62,1.35A278.24,278.24,0,0,0,693,710.56c21.65-20.29,37.06-46,52.21-71.42,3.25-5.68,6.5-11.09,9.74-16.5,8.12-13.26,10-29.49,18.67-42.2,7.84,6.49,7.3,19.75,7.3,29.49a227.2,227.2,0,0,0,25.7-52.76c6-18.93,16-37.33,16-57.62,0-12.44-6.22-50.59-18.39-57.35a238.57,238.57,0,0,0,36.52,17.31,177.09,177.09,0,0,0-16-44.09C812.54,391.88,796,371.32,777.91,348.33ZM273.38,64c1.08,0,2.16-.27,3.24-.27,27.87.27,53.57,57.08,70.07,75.47,3.52,4.06,8.39,9.47,13.26,15.69,11.63,14.88,37.87,46.26,29.48,66.82-6.76,16.5-29.48,17.59-44.09,22.46C333.71,248,328.57,258,318,262c-27.33,10.82-37.61-11.9-44.37-33C257.42,178.17,260.39,115.68,273.38,64ZM634.26,218.75c-.27-23.54,16.23-46,30.3-63.58,4.87-6.22,9.74-11.63,13.25-15.69C694.32,120.82,719.74,64,747.88,64c1.08,0,2.16.27,3.25.27,13,51.4,16,113.89,0,165-6.5,20.56-14.34,44.63-41.12,33.54-8.66-3.51-15.69-11.36-24.35-14.61C666.72,241.74,634.8,245.26,634.26,218.75Z"/><path class="cls-6" d="M317.74,262.3c10.56-4.33,15.7-14.34,27.33-17.85,14.61-4.6,37.33-5.68,44.09-22.46,8.39-20.29-17.85-51.94-29.48-66.82-4.87-6.22-9.74-11.63-13.26-15.69C329.92,120.82,304.49,64,276.35,64c-1.08,0-2.16.27-3.24.27-13,51.4-16,113.89,0,165C279.87,250.4,290.42,273.12,317.74,262.3Z"/><path class="cls-6" d="M710,262.84c26.78,11.09,34.62-13,41.12-33.54,16-51.13,13-113.62,0-165-1.09,0-2.17-.27-3.25-.27-27.86.27-53.56,57.08-70.07,75.47-3.51,4.06-8.38,9.47-13.25,15.69-14.07,17.59-30.57,40-30.3,63.58.54,26.51,32.46,22.72,51.13,29.48C694.32,251.48,701.35,259.33,710,262.84Z"/><path class="cls-3" d="M374.28,744.11c45.72,29.48,87.65,45.71,135.81,45.71,42.47-2.16,93.33-7.57,138.51-44.9.54-.54,1.08-.81,1.62-1.35,22.18-31.12,101.45-158,48.42-233.74-11.09-16-28.4-29.22-40-30.57,49.5-27.05,65.46-62.49,67.63-94.14,1.62-24.89-9.74-78.45-41.12-104.69a63.63,63.63,0,0,0-34.36-14.61,66,66,0,0,0-7.3-.27c-77.37,1.08-104.7,76.29-115.52,111.45-3-10.82-15.42-25.7-17.31-41.39v0c-1.89,15.69-14.34,30.57-17.31,41.39-7-26.24-37.88-105.23-119.85-103.07-63.3,1.63-78.18,80.08-78.18,113.62.27,32.2,16,65.47,67.36,100.37-11.63,1.62-28.13,4.6-40.31,21.91-49.77,71.15,26,200.46,48.16,231.84v.27A16.85,16.85,0,0,1,374.28,744.11Zm250.24-50.59c-43.82,47.07-72,36.79-85.76,33.54,20.83-12.44,29.49-14.33,60.33-44.9,13.53-13.26,40.85-52.49,25.43-90.9C666.45,602.08,644.54,671.88,624.52,693.52Zm-14.34-359.8c18.4,0,33.28,27.86,33.28,62.22s-14.88,62.22-33.28,62.22-33.27-27.86-33.27-62.22S592.06,333.72,610.18,333.72ZM478.44,586.93c28.4-16.5,124.71-.81,85.75,47.61C529.84,677.29,407.56,627.78,478.44,586.93Zm-72-253.21c18.39,0,33.27,27.86,33.27,62.22s-14.88,62.22-33.27,62.22S373.2,430.3,373.2,395.94,388.08,333.72,406.48,333.72Z"/><path class="cls-4" d="M564.19,634.54c39.23-48.69-57.08-64.11-85.75-47.61C407.56,627.78,529.84,677.29,564.19,634.54Zm-100.36-23.8c.81-7,13-15.69,26.78-19.21s24.35-.54,23.27,6.76c-.82,7-13,15.69-26.79,19.21C473.3,620.75,463,617.77,463.83,610.74Z"/><path class="cls-4" d="M610.18,458.16c18.4,0,33.28-27.86,33.28-62.22s-14.88-62.22-33.28-62.22-33.27,27.86-33.27,62.22S592.06,458.16,610.18,458.16Zm-21.91-72.77c-6.22-4.33-4.87-16.77,2.43-27.59,7.58-10.82,18.4-16,24.62-11.64s4.87,16.78-2.43,27.6S594.49,389.72,588.27,385.39Z"/><path class="cls-4" d="M406.48,458.16c18.39,0,33.27-27.86,33.27-62.22s-14.88-62.22-33.27-62.22-33.28,27.86-33.28,62.22S388.08,458.16,406.48,458.16Zm-21.37-72.77c-6.23-4.33-4.87-16.77,2.43-27.59,7.57-10.82,18.4-16,24.62-11.64s4.87,16.78-2.44,27.6S391.33,389.72,385.11,385.39Z"/><path class="cls-4" d="M624.25,591.26c15.42,38.14-11.9,77.64-25.43,90.9-30.57,30.57-39.23,32.46-60.06,44.9,14.07,3.25,41.94,13.53,85.76-33.81C644.54,671.88,666.45,602.08,624.25,591.26Z"/><path class="cls-7" d="M409.72,373.76c7.58-10.82,8.66-23,2.44-27.6-6.22-4.32-17.05.82-24.62,11.64s-8.66,23-2.43,27.59C391.33,389.72,402.42,384.58,409.72,373.76Z"/><path class="cls-7" d="M612.89,373.76c7.57-10.82,8.65-23,2.43-27.6-6.22-4.32-17,.82-24.62,11.64s-8.65,23-2.43,27.59C594.49,389.72,605.31,384.58,612.89,373.76Z"/><path class="cls-7" d="M487.36,617.23c13.8-3.52,25.7-12.17,26.79-19.21.81-7-9.47-10-23.27-6.76s-25.7,12.17-26.78,19.21S473.3,620.75,487.36,617.23Z"/><path class="cls-7" d="M719.47,856.1c-14.33,1.09-26.24,4.87-36,10.28-30.56,17-39.76,51.4-33,83.33A80.72,80.72,0,0,0,654.28,963c8.38,23.27,25.16,43.56,48.15,52.48,1.08.27,2.17.81,3.25,1.08,2.7-5.68,6.49-10.28,8.38-16.5,3-8.92,5.68-18.12,8.93-27,1.35-3.52,2.44-6.76,6-8.93,8.93,17.05,2.17,37.06-3,54.11-.27.54-.27,1.35-.54,1.89a88.9,88.9,0,0,0,31.38-4.87c0-.27.27-.54.27-.81,2.7-7,7.3-12.17,9.74-19.48,3-8.92,5.68-18.12,8.92-27,1.36-3.52,2.44-6.76,6-8.93,7.3,13.8,4.32,29.49,0,44.1a90.77,90.77,0,0,0,11.09-7.58c46-33.54,41.39-77.37,4.87-114.43a117.32,117.32,0,0,0-16-13.52C769.25,859.08,756,855.56,740,855,733.81,855.29,727.05,855.56,719.47,856.1Z"/><path class="cls-1" d="M781.7,959.17c-3.52,2.17-4.6,5.41-6,8.93-3.51,8.93-6,18.13-8.92,27-2.44,7.31-7,12.45-9.74,19.48,0,.27-.27.54-.27.81a137.34,137.34,0,0,0,24.89-11.9C786,988.93,789,973.24,781.7,959.17Z"/><path class="cls-1" d="M729.21,964.31c-3.51,2.17-4.6,5.41-6,8.93-3.52,8.93-6,18.13-8.93,27-1.89,6.23-5.68,10.82-8.38,16.51a67.27,67.27,0,0,0,19.75,3.51,17.21,17.21,0,0,1,.54-1.89C731.38,1001.1,738.14,981.36,729.21,964.31Z"/><path class="cls-7" d="M347.5,866.38c-9.74-5.41-21.64-9.19-36-10.28a199.39,199.39,0,0,0-21.64-.54c-16,.81-29.22,4.6-42.2,13.53a119.46,119.46,0,0,0-14.61,12.44C196.55,918.59,192,962.42,237.94,996c3.79,2.71,7.57,5.14,11.09,7.58-4.33-14.61-7.3-30.3,0-44.1,3.52,2.17,4.6,5.41,5.95,8.93,3.52,8.93,6,18.13,8.93,27,2.43,7.31,7,12.45,9.74,19.48,0,.27.27.54.27.81,11.09,3.79,21.64,5.41,31.38,4.87a17.21,17.21,0,0,0-.54-1.89c-5.14-17-11.9-37.06-3-54.11,3.52,2.17,4.6,5.41,6,8.93,3.51,8.93,5.95,18.13,8.92,27,1.9,6.23,5.68,10.82,8.39,16.51,1.08-.27,2.16-.82,3.25-1.09,23-8.92,39.76-29.21,48.15-52.48a108.54,108.54,0,0,0,3.79-13.25C387.27,917.78,378.07,883.43,347.5,866.38Z"/><path class="cls-1" d="M264.45,995.42c-3-8.92-5.68-18.12-8.93-27-1.35-3.52-2.43-6.76-6-8.93-7.3,13.8-4.33,29.49,0,44.1a129,129,0,0,0,24.89,11.9c0-.27-.27-.54-.27-.81C271.48,1007.87,266.62,1002.46,264.45,995.42Z"/><path class="cls-1" d="M308,973.24c-1.36-3.52-2.44-6.76-6-8.93-8.92,17.05-2.16,37.07,3,54.11.27.54.27,1.35.54,1.89a77.53,77.53,0,0,0,19.75-3.51c-2.71-5.69-6.49-10.28-8.39-16.51C314,991.1,311.52,982.17,308,973.24Z"/><circle class="cls-5" cx="513.95" cy="868.12" r="26.62"/><circle class="cls-8" cx="513.95" cy="868.12" r="22.94"/><path class="cls-7" d="M519.18,864.2h2.61c.19,0,.25,0,.22.24-.11.63-.2,1.27-.28,1.9,0,.16-.09.2-.25.2h-3.8a.39.39,0,0,0-.38.2,23.08,23.08,0,0,0-1.19,2l-.07.17h5c.2,0,.28,0,.24.26-.13.64-.21,1.28-.29,1.93,0,.19-.09.25-.3.25H515.2a.25.25,0,0,0-.28.2,29,29,0,0,0-1.29,5.35c-.12.86-.26,1.71-.38,2.57,0,.15-.08.17-.21.17h-4.28c-.06,0-.18.07-.15-.11a45.82,45.82,0,0,1,1.22-6.47c.17-.56.36-1.11.58-1.7h-3c-.18,0-.2-.06-.18-.22.11-.69.22-1.38.31-2.08,0-.15.1-.13.2-.13h3.54c.1,0,.18,0,.24-.11a25.36,25.36,0,0,1,1.41-2.3H508.2c-.2,0-.24,0-.21-.23.11-.63.21-1.25.29-1.88,0-.21.11-.23.28-.23h5.93a.41.41,0,0,0,.37-.18,47.85,47.85,0,0,1,3.33-3.65,1.37,1.37,0,0,1,.2-.13.43.43,0,0,0,0-.07H506.9c-.18,0-.26,0-.22-.23.17-1.05.32-2.11.46-3.16,0-.18.12-.18.26-.18h15.78c.17,0,.22,0,.19.22-.17,1.06-.32,2.12-.47,3.18a.48.48,0,0,1-.17.32c-1.21,1.2-2.37,2.46-3.46,3.78Z"/></svg>