<svg id="Layer_1" data-name="Layer 1" xmlns="http://www.w3.org/2000/svg" viewBox="0 0 704 144"><defs><style>.cls-1{fill:#fff;}.cls-2,.cls-3,.cls-4,.cls-5{fill:none;stroke:#f15a24;}.cls-13,.cls-2{stroke-miterlimit:10;}.cls-2{stroke-width:3px;}.cls-3{stroke-miterlimit:10;stroke-width:3px;}.cls-4{stroke-miterlimit:10;stroke-width:3px;}.cls-5{stroke-miterlimit:10;stroke-width:3px;}.cls-11,.cls-13,.cls-6{fill:#f15a29;}.cls-6{fill-opacity:0;}.cls-7{fill:#45484c;}.cls-8{fill:#d3d3d3;}.cls-9{fill:#fefefe;}.cls-10{fill:#0b0808;}.cls-12{fill:#959595;}.cls-13{stroke:#fff;stroke-width:0.5px;}</style></defs><path class="cls-1" d="M167.9,112.4a71.83,71.83,0,0,1-8.7-.8,30,30,0,0,1-7.4-2.1,17.77,17.77,0,0,1-6-3.6,18,18,0,0,1-4.1-5.5,22.32,22.32,0,0,1-2-7.8.88.88,0,0,1,.8-.9,1.72,1.72,0,0,0,.8.1c2.3,0,5.7-.1,10.3-.2s8.1-.2,10.3-.2a1.82,1.82,0,0,1,1.4.6,3.22,3.22,0,0,1,.8,1.4c.2.6.5,1.1.7,1.6a3.43,3.43,0,0,0,1.5,1.4,5.4,5.4,0,0,0,2.7.6,6.06,6.06,0,0,0,3.5-1.1,3.62,3.62,0,0,0,1.5-3.1,2.92,2.92,0,0,0-1.3-2.3,9.53,9.53,0,0,0-3.5-1.7c-1.5-.4-2.8-.8-4.1-1.1s-2.6-.6-4-.8-2.2-.4-2.4-.4c-6.6-1.8-11.4-4-14.3-6.7s-4.4-6.3-4.4-11a20.66,20.66,0,0,1,1.8-8.8,19.35,19.35,0,0,1,4.7-6.4,23.37,23.37,0,0,1,6.9-4.1,34.45,34.45,0,0,1,8-2.3,57.1,57.1,0,0,1,8.4-.7c7.7,0,13.8,1.4,18.4,4.3,1.7,1.7,2.9,2.9,3.7,3.8s1.5,1.9,2.3,3a12.63,12.63,0,0,1,1.5,3.4,21.08,21.08,0,0,1,.6,4.1l-1.5,1.5q-8.4.3-18.9.3a5.84,5.84,0,0,1-2.1-.3,2.33,2.33,0,0,1-1.1-.7,4.05,4.05,0,0,1-.5-.9c-.2-.3-.3-.6-.5-.9a2.18,2.18,0,0,0-.9-.7,5,5,0,0,0-1.9-.3,4.14,4.14,0,0,0-1,.1c-.5.1-1,.2-1.7.4a8.86,8.86,0,0,0-1.7.8,1.57,1.57,0,0,0-.7,1.3,2.06,2.06,0,0,0,.9,1.6,9.3,9.3,0,0,0,1.9,1.1c.7.2,1.5.5,2.5.7s1.6.4,1.9.5c6,1.5,9.5,2.4,10.7,2.8,6,1.9,10.2,4.4,12.7,7.4a16.34,16.34,0,0,1,3.4,10.7,21.4,21.4,0,0,1-3.6,12.5,16.94,16.94,0,0,1-4.1,3.9,22.16,22.16,0,0,1-5,2.7,29.38,29.38,0,0,1-5.7,1.7c-2.1.4-4.1.8-5.9,1A35.82,35.82,0,0,0,167.9,112.4Z"/><path class="cls-1" d="M228.7,109.6a31.73,31.73,0,0,1-12.3-2.3,23.42,23.42,0,0,1-8.9-6.4,28,28,0,0,1-5.3-9.6,38.23,38.23,0,0,1-1.8-12v-.6c0-.2.1-.7.1-1.4a10.62,10.62,0,0,0,.1-1.5c0-.2.1-.7.1-1.3a4.64,4.64,0,0,1,.2-1.4,12.29,12.29,0,0,0,.2-1.3c.1-.6.2-1,.3-1.4s.3-.8.4-1.3.3-1,.5-1.5a9.14,9.14,0,0,1,.7-1.4v.1a23.85,23.85,0,0,1,4.8-6.8,22.78,22.78,0,0,1,6.3-4.5,29.48,29.48,0,0,1,7.1-2.3A42.26,42.26,0,0,1,238,53a25.36,25.36,0,0,1,6.8,2.7,18.06,18.06,0,0,1,4.6,4.1,16.64,16.64,0,0,1,2.9,4.9,23.33,23.33,0,0,1,1.4,5.5v3.5a1.46,1.46,0,0,1-.6.9,3.58,3.58,0,0,1-1.1.4c-.4,0-.9.1-1.6.1H233V71.6a4.2,4.2,0,0,0-1.2-2.5,3,3,0,0,0-2.4-1.1,5.09,5.09,0,0,0-2.2.5,5,5,0,0,0-1.5,1.4,6.67,6.67,0,0,0-.9,2.1,18.43,18.43,0,0,0-.5,2.5c-.1.9-.1,1.7-.2,2.6v8.3a13.4,13.4,0,0,0,.1,2,18.14,18.14,0,0,0,.5,2.5,5.61,5.61,0,0,0,1.4,2.5,3.66,3.66,0,0,0,2.5.9,2.45,2.45,0,0,0,2.3-1.3,16.31,16.31,0,0,0,1.3-3.2,4.83,4.83,0,0,1,1.2-2.5H253c.9,0,1.4.5,1.5,1.6v1.6a21.36,21.36,0,0,1-6,13.2,24,24,0,0,1-12.8,6.4v.2C233.8,109.4,231.5,109.6,228.7,109.6Z"/><path class="cls-1" d="M312.5,55.2v50.4a5.72,5.72,0,0,1-.1,1.4c-.1.4-.2.7-.3,1a1,1,0,0,1-.8.5H290.4v-.9a5.92,5.92,0,0,0-.6-.4,2.49,2.49,0,0,1-.7-.5V90.1c0-.6,0-.9-.1-1s-.5-.1-1.2-.1H285a21.51,21.51,0,0,0-2.3.2v17.7q-.15.75-.6.9a4.64,4.64,0,0,1-1.4.2h-1.9c-1.3,0-3.3,0-6,.1s-4.8.1-6.3.1H261c-1.2,0-1.8-.7-1.8-2l.2-51.7c0-.1,0-.3.1-.3a2.74,2.74,0,0,1,.5-.4,1.73,1.73,0,0,1,.4-.3h22.1V71.1h7.1V53h20.9a1.81,1.81,0,0,1,1.4.5A2.06,2.06,0,0,1,312.5,55.2Z"/><path class="cls-1" d="M374.8,53.5c.3.1.6.6.8,1.4a13.54,13.54,0,0,1,.3,3.1v3.6c0,1.1-.1,2.3-.1,3.5s-.1,2-.1,2.3c-.1,1.1-.1,2.6-.1,4.6v4.3c0,1.9,0,4.5.1,7.9s.1,5.8.1,7.4v14.9c-.1.9-.9,1.4-2.3,1.4h-23c-.5-.1-1.1-1.3-1.9-3.4-.5-1.4-1.4-3.8-2.6-7.1s-2.3-6.2-3.1-8.7-1.7-4.9-2.4-7.3v0c-.1,1.8-.2,4.5-.2,8.1s-.2,6.2-.2,8v8.4a3.42,3.42,0,0,1-.3,1.7,2.56,2.56,0,0,1-1.5.8H321.4l-1.8-1.8q.15-6.75.3-21.3c.1-9.7.2-16.8.3-21.5V54.9c.3-1,.6-1.5,1-1.5v.2c1.9,0,4.8-.1,8.8-.2s7-.2,9-.2h7c.5.2.8.4.8.7v.3c1,2.7,2,5.4,3,8.2s2.2,6.3,3.6,10.3,2.4,6.8,2.9,8.3V75c.5-9.6.8-16.5.8-20.5,0-.4.3-.7.9-.8a17,17,0,0,1,2.8-.2Z"/><path class="cls-1" d="M558.2,53a62.39,62.39,0,0,1,10.1.7,35.69,35.69,0,0,1,8.6,2.6,23.27,23.27,0,0,1,6.9,4.9,22,22,0,0,1,4.4,7.9,37.63,37.63,0,0,1,.5,19.9,26.38,26.38,0,0,1-3,7,31.82,31.82,0,0,1-4.4,5.2,21.62,21.62,0,0,1-5.4,3.7,27.51,27.51,0,0,1-5.8,2.2,29.12,29.12,0,0,1-5.8.9H536V53.7h1a45.14,45.14,0,0,0,5.4-.4,45.14,45.14,0,0,1,5.4-.4h10.4Zm.5,42.3a8.73,8.73,0,0,0,3.7-.7,7.31,7.31,0,0,0,2.6-1.9,12,12,0,0,0,1.6-2.7,13.07,13.07,0,0,0,.9-3.3c.2-1.3.3-2.4.4-3.3a31.12,31.12,0,0,0,.1-3.2v-3c0-.2-.1-1.1-.2-2.8a13.05,13.05,0,0,0-.9-4.3,8.55,8.55,0,0,0-1.5-2.2,9.36,9.36,0,0,0-1.6-1.4,7.5,7.5,0,0,0-1.8-.8,6.8,6.8,0,0,0-1.9-.3,13.42,13.42,0,0,0-2.1-.1v.9h-1.2v29h1.9Z"/><path class="cls-1" d="M595.9,108.3l-.4-.4a1.83,1.83,0,0,1-.6-.8V89.4c0-2.3.1-5.9.3-10.7s.3-8.5.3-11c0-.5-.1-1.7-.2-3.5s-.2-3.2-.2-4.2c0-3.9.5-6.2,1.4-7.1,5.7.1,9.9.2,12.7.2h3.9a12.17,12.17,0,0,1,2.1.1c.1-.1.2-.1.4-.1a2.64,2.64,0,0,1,.7.1,4.14,4.14,0,0,0,1,.1c.7.1,1.3.7,1.7,1.7v5a1.79,1.79,0,0,1-.5.7,1.46,1.46,0,0,0-.5.8V91.4h18.4c.2,0,.4.2.7.4a1.33,1.33,0,0,1,.3,1v13.7c-.2,1.1-1.5,1.6-3.9,1.6H595.9Z"/><path class="cls-1" d="M641.2,57a13.28,13.28,0,0,1,.2-2.9,1.21,1.21,0,0,1,1.2-.6h1a2.22,2.22,0,0,1,.9.1h2.1c2.8,0,6.9-.1,12.5-.2s9.8-.2,12.6-.2h10.9c.7.1,1.1.4,1.1,1.1V68c0,.2-.1.3-.1.4a.22.22,0,0,1-.2.2c-.1,0-.2.1-.4.3a.91.91,0,0,1-.5.3h-19v5.1h1.8c1.6,0,4-.1,7.3-.2s5.8-.2,7.5-.2a2.17,2.17,0,0,1,1.6.5,1.7,1.7,0,0,1,.4,1.3,2.25,2.25,0,0,1-.1.7,2.25,2.25,0,0,0-.1.7v4.3a10.87,10.87,0,0,0,.1,1.8,9.15,9.15,0,0,1,.1,1.6v1.1a4.88,4.88,0,0,1-.3.7.52.52,0,0,1-.4.2v-.1c-1,0-2.8.1-5.2.2s-4.5.2-5.9.2h-6.6v5.2h2c1.2,0,3,0,5.5-.1s4.1-.1,5.2-.1h5.2a5,5,0,0,1,2.7.5c.1.2.2.3.3.5v13.1a2.27,2.27,0,0,1-.3,1.3,1.36,1.36,0,0,1-1.2.5H642.5l-1.2-1.1V57Z"/><path class="cls-2" d="M516.3,95.1a14,14,0,0,0-3.3-5.3,15.91,15.91,0,0,0-1.9-1.6c-4-3.1-4-8.4-6.8-11.9-1.4-1.8-4.2-3.9-10-4.4h-.4c-5.8.6-8.6,2.6-10,4.4-2.8,3.5-2.8,8.8-6.8,11.9a14.24,14.24,0,0,0-1.9,1.6,14,14,0,0,0-3.3,5.3c-1,3.1-.9,7.9,2.2,11a9.32,9.32,0,0,0,5.3,2.5c4.1.5,5.9-2.4,12.2-2.8a16.45,16.45,0,0,1,2.3,0h2.3c6.3.4,8.1,3.3,12.2,2.8a9.07,9.07,0,0,0,5.3-2.5C517.2,103,517.2,98.1,516.3,95.1Z"/><ellipse class="cls-3" cx="468.21" cy="76.09" rx="7.7" ry="11.4" transform="matrix(0.93, -0.36, 0.36, 0.93, 3.75, 172.46)"/><ellipse class="cls-3" cx="520.21" cy="76.11" rx="11.4" ry="7.7" transform="translate(263.11 534.7) rotate(-69.05)"/><ellipse class="cls-4" cx="483.19" cy="58.12" rx="7.7" ry="11.4" transform="translate(-3.43 65.52) rotate(-7.73)"/><ellipse class="cls-5" cx="505.16" cy="58.06" rx="11.4" ry="7.7" transform="translate(379.68 550.82) rotate(-82.27)"/><path class="cls-2" d="M440.9,95.5a14,14,0,0,0-3.3-5.3,15.91,15.91,0,0,0-1.9-1.6c-4-3.1-4-8.4-6.8-11.9-1.4-1.8-4.2-3.9-10-4.4h-.4c-5.8.6-8.6,2.6-10,4.4-2.8,3.5-2.8,8.8-6.8,11.9a14.24,14.24,0,0,0-1.9,1.6,14,14,0,0,0-3.3,5.3c-1,3.1-.9,7.9,2.2,11A9.32,9.32,0,0,0,404,109c4.1.5,5.9-2.4,12.2-2.8a16.45,16.45,0,0,1,2.3,0h2.3c6.3.4,8.1,3.3,12.2,2.8a9.07,9.07,0,0,0,5.3-2.5C441.8,103.4,441.8,98.6,440.9,95.5Z"/><ellipse class="cls-3" cx="392.8" cy="76.49" rx="7.7" ry="11.4" transform="translate(-1.38 145.52) rotate(-20.95)"/><ellipse class="cls-3" cx="444.78" cy="76.51" rx="11.4" ry="7.7" transform="translate(214.28 464.52) rotate(-69.05)"/><ellipse class="cls-4" cx="407.79" cy="58.51" rx="7.7" ry="11.4" transform="translate(-4.16 55.38) rotate(-7.73)"/><ellipse class="cls-5" cx="429.71" cy="58.56" rx="11.4" ry="7.7" transform="translate(313.89 476.49) rotate(-82.27)"/><g id="dbe10697-8c2c-449f-9595-e1af2e70978d"><rect class="cls-6" x="-52.94" y="-45.28" width="234.11" height="234.11"/></g><path class="cls-7" d="M86.64,111.34a26.16,26.16,0,0,1-4.12,3.16,71.49,71.49,0,0,0-5,11.9c-1,2.78-1.64,5.18-1.94,6.36l-.19.8a.15.15,0,0,1,0,.12c1.79-4.23,7.36-9.8,12.58-11.74A12.06,12.06,0,0,1,93,120.49a24.87,24.87,0,0,1,2.94-.08,11,11,0,0,1,5.87,1.76c-.23-1-.46-2-.72-3-1.83-6.86-4.24-12.2-8.51-14.87a39.46,39.46,0,0,1-4.53,5.61C87.59,110.38,87.13,110.88,86.64,111.34Z"/><path class="cls-8" d="M51,126c1,2.93,1.79,5.53,2.13,6.78,0,0,.12.54.19.88H75.39s0-.08,0-.11c.07-.35.19-.8.19-.8.3-1.19,1-3.59,1.94-6.37A49.19,49.19,0,0,1,51,126Z"/><path class="cls-9" d="M77.52,126.36a71,71,0,0,1,5-11.89C75.31,118.85,67,118.78,59,118.24a32.93,32.93,0,0,1-12.88-3.51A62.49,62.49,0,0,1,51,126,49.12,49.12,0,0,0,77.52,126.36Z"/><path class="cls-9" d="M75.35,133.64h7.93c-1-4.5.34-9.38,4.65-11.74-5.18,1.9-10.75,7.51-12.58,11.74,0,0,0-.08,0-.11a.18.18,0,0,1,0,.11Z"/><path class="cls-7" d="M35.55,120.41a12.25,12.25,0,0,1,5.07,1.45c5.22,1.94,10.79,7.55,12.58,11.74h.11c-.07-.34-.19-.87-.19-.87-.34-1.26-1.1-3.85-2.13-6.79a65.48,65.48,0,0,0-4.84-11.25,29.11,29.11,0,0,1-4.85-3.09c-.76-.61-1.52-1.25-2.25-1.94a32.16,32.16,0,0,1-4.15-4.8c-3.7,2.82-5.87,7.89-7.55,14.18-.27,1.07-.53,2.1-.73,3.16a10.78,10.78,0,0,1,5.95-1.9C33.45,120.3,34.44,120.34,35.55,120.41Z"/><path class="cls-9" d="M40.58,121.86c4.31,2.4,5.6,7.24,4.65,11.74h7.93C51.37,129.41,45.8,123.8,40.58,121.86Z"/><path class="cls-10" d="M75.35,133.64H45.23a10.93,10.93,0,0,1-.53,1.87H83.85a14.35,14.35,0,0,1-.53-1.87Z"/><path class="cls-11" d="M89.27,99.9A41.45,41.45,0,0,1,83,104.74c-6.36,5.26-13.53,6-19.52,6.33-6.75,0-12.69-2.29-19.14-6.44-.15-.12-.34-.23-.49-.35v0a39.15,39.15,0,0,1-5.53-4.35C36,97.76,33.07,95,31.81,92.12c-.11-.3-.42-.91-.8-1.64a24.59,24.59,0,0,0,1.11,9.23,21.5,21.5,0,0,0,2.82,5.15,34.65,34.65,0,0,0,4.15,4.8c.73.69,1.49,1.33,2.25,1.94a29.75,29.75,0,0,0,4.84,3.09,33.61,33.61,0,0,0,12.89,3.51c8.05.57,16.32.65,23.52-3.77a23.74,23.74,0,0,0,4.12-3.17c.5-.46,1-.91,1.41-1.41a44.32,44.32,0,0,0,4.54-5.6,23.78,23.78,0,0,0,3.85-11,34.1,34.1,0,0,0,.19-3.43C94.53,93.42,92.32,97,89.27,99.9Z"/><path class="cls-7" d="M101.24,48.85c2,.53,5.45.49,7.81,1.37-4.27-4-6.71-10-10.29-14.83,5.3-8.2,3.47-25.81.11-31.34-3.05-5-4.76-5.22-6.93-.42-2,4.19-4.58,5.79-7.21,9.46-2.33,3.27-6,8.42-6.86,12.84a87,87,0,0,0-25.89-1l-2.44.23c-1.14-4.23-4.46-9-6.67-12.08-2.63-3.67-5.26-5.27-7.21-9.46-2.21-4.77-3.89-4.54-6.94.42-3.39,5.49-5.18,23.14.12,31.34-3.59,4.8-6,10.79-10.26,14.79,2.36-.87,5.8-.8,7.82-1.37a61.14,61.14,0,0,0-6.6,9.49,25.24,25.24,0,0,0-2.25,6.22,41.2,41.2,0,0,0,5.15-2.44c-2.75,5.18-4,16.77,1.22,21.16a11.89,11.89,0,0,1,2.4-4.62c.5,1.91.46,3.7,1.45,5.61.61,1.18,2.25,4.23,3.28,6.25.38.73.68,1.34.8,1.64,1.26,2.9,4.23,5.64,6.52,7.78a39.17,39.17,0,0,0,5.45,4.38C40.69,99.86,30,81.64,37,71.61a7.55,7.55,0,0,1,5.68-3.09c-7.25-4.92-9.5-9.61-9.5-14.14,0-4.77,2.06-15.79,11-16,11.52-.3,15.9,10.83,16.89,14.53.42-1.53,2.17-3.62,2.44-5.83v0c.27,2.21,2,4.3,2.44,5.83,1.53-5,5.38-15.56,16.28-15.71a8.77,8.77,0,0,1,5.87,2.1C92.58,43,94.19,50.53,93.92,54c-.27,4.46-2.52,9.46-9.5,13.27,1.64.23,4.08,2.1,5.65,4.31,7.47,10.67-3.7,28.56-6.83,32.94a2.11,2.11,0,0,1-.23.19,39,39,0,0,0,6.26-4.84c3-2.86,5.22-6.48,7.36-10.07.45-.8.91-1.56,1.37-2.32,1.14-1.87,1.41-4.16,2.63-6,1.1.92,1,2.78,1,4.16a32.29,32.29,0,0,0,3.62-7.44c.84-2.67,2.25-5.26,2.25-8.12,0-1.75-.88-7.13-2.59-8.08a34.17,34.17,0,0,0,5.14,2.44,24.46,24.46,0,0,0-2.25-6.22A60.78,60.78,0,0,0,101.24,48.85ZM30.13,8.78c.16,0,.31,0,.46,0,3.93,0,7.55,8,9.87,10.64.5.57,1.19,1.33,1.87,2.21C44,23.68,47.67,28.11,46.49,31c-1,2.33-4.16,2.48-6.22,3.17-1.64.53-2.36,1.94-3.85,2.52C32.57,38.21,31.12,35,30.17,32,27.88,24.87,28.3,16.06,30.13,8.78ZM81,30.59c0-3.32,2.29-6.49,4.27-9,.69-.88,1.38-1.64,1.87-2.22C89.46,16.78,93,8.78,97,8.78l.45,0c1.83,7.25,2.25,16.06,0,23.26-.91,2.9-2,6.29-5.79,4.73-1.22-.5-2.21-1.6-3.43-2.06C85.57,33.83,81.07,34.32,81,30.59Z"/><path class="cls-12" d="M36.39,36.72c1.48-.61,2.21-2,3.85-2.51,2-.65,5.26-.8,6.21-3.17,1.18-2.86-2.52-7.32-4.16-9.41-.68-.88-1.37-1.64-1.86-2.22C38.1,16.78,34.52,8.78,30.55,8.78c-.15,0-.3,0-.46,0-1.83,7.25-2.25,16.06,0,23.26C31.05,35.05,32.53,38.25,36.39,36.72Z"/><path class="cls-12" d="M91.67,36.8c3.77,1.56,4.88-1.83,5.79-4.73,2.25-7.2,1.83-16,0-23.26l-.45,0c-3.93,0-7.55,8-9.88,10.63-.49.58-1.18,1.34-1.87,2.22-2,2.47-4.3,5.64-4.27,9,.08,3.73,4.58,3.2,7.21,4.15C89.46,35.2,90.45,36.3,91.67,36.8Z"/><path class="cls-9" d="M44.35,104.63c6.45,4.15,12.36,6.44,19.14,6.44,6-.3,13.16-1.07,19.52-6.33a2.11,2.11,0,0,0,.23-.19c3.13-4.38,14.3-22.27,6.83-32.94-1.57-2.25-4-4.12-5.65-4.31,7-3.81,9.23-8.81,9.54-13.27.23-3.5-1.38-11.05-5.8-14.75a8.77,8.77,0,0,0-5.87-2.1C71.39,37.33,67.53,47.93,66,52.89c-.42-1.53-2.17-3.62-2.44-5.83v0c-.27,2.21-2,4.3-2.44,5.83-1-3.7-5.34-14.83-16.89-14.53-8.92.23-11,11.29-11,16,0,4.53,2.25,9.22,9.49,14.14A7.57,7.57,0,0,0,37,71.61c-7,10,3.66,28.25,6.79,32.67v0A2.31,2.31,0,0,1,44.35,104.63ZM79.62,97.5c-6.18,6.63-10.14,5.18-12.09,4.72,2.94-1.75,4.16-2,8.51-6.32,1.9-1.87,5.75-7.4,3.58-12.81C85.53,84.61,82.44,94.45,79.62,97.5Zm-2-50.71c2.59,0,4.69,3.93,4.69,8.77s-2.1,8.77-4.69,8.77-4.69-3.93-4.69-8.77S75.05,46.79,77.6,46.79ZM59,82.48c4-2.33,17.58-.12,12.09,6.71C66.28,95.21,49,88.23,59,82.48ZM48.89,46.79c2.59,0,4.69,3.93,4.69,8.77s-2.1,8.77-4.69,8.77S44.2,60.4,44.2,55.56,46.3,46.79,48.89,46.79Z"/><path class="cls-10" d="M71.12,89.19c5.53-6.87-8.05-9-12.09-6.71C49,88.23,66.28,95.21,71.12,89.19ZM57,85.83c.12-1,1.83-2.21,3.78-2.71s3.43-.07,3.28,1-1.83,2.21-3.78,2.7S56.86,86.82,57,85.83Z"/><path class="cls-10" d="M77.6,64.33c2.59,0,4.69-3.93,4.69-8.77s-2.1-8.77-4.69-8.77-4.69,3.93-4.69,8.77S75.05,64.33,77.6,64.33ZM74.51,54.07c-.88-.61-.68-2.36.35-3.89s2.59-2.25,3.46-1.64S79,50.91,78,52.43,75.39,54.68,74.51,54.07Z"/><path class="cls-10" d="M48.89,64.33c2.59,0,4.69-3.93,4.69-8.77s-2.1-8.77-4.69-8.77-4.69,3.93-4.69,8.77S46.3,64.33,48.89,64.33Zm-3-10.26c-.88-.61-.69-2.36.34-3.89s2.59-2.25,3.47-1.64.69,2.37-.34,3.89S46.76,54.68,45.88,54.07Z"/><path class="cls-10" d="M79.58,83.09C81.76,88.46,77.91,94,76,95.9c-4.31,4.3-5.53,4.57-8.47,6.32,2,.46,5.91,1.91,12.09-4.76C82.44,94.45,85.53,84.61,79.58,83.09Z"/><path class="cls-1" d="M49.35,52.43c1.07-1.52,1.22-3.24.34-3.89s-2.4.12-3.47,1.64-1.22,3.24-.34,3.89S48.32,54,49.35,52.43Z"/><path class="cls-1" d="M78,52.43c1.07-1.52,1.22-3.24.34-3.89s-2.4.12-3.46,1.64-1.23,3.24-.35,3.89S76.91,54,78,52.43Z"/><path class="cls-1" d="M60.29,86.75c2-.5,3.62-1.72,3.78-2.71s-1.34-1.41-3.28-1S57.16,84.8,57,85.79,58.31,87.24,60.29,86.75Z"/><path class="cls-1" d="M93,120.41a12.21,12.21,0,0,0-5.07,1.45c-4.31,2.4-5.6,7.24-4.65,11.74a13.11,13.11,0,0,0,.53,1.87,12.23,12.23,0,0,0,6.79,7.4l.46.15a17,17,0,0,0,1.18-2.33c.42-1.25.8-2.55,1.26-3.81a2.2,2.2,0,0,1,.84-1.26c1.26,2.41.3,5.23-.42,7.63,0,.08,0,.19-.08.27a12.8,12.8,0,0,0,4.42-.69s0-.08,0-.11c.38-1,1-1.72,1.38-2.75.41-1.26.8-2.55,1.25-3.81a2.19,2.19,0,0,1,.84-1.26c1,1.94.61,4.16,0,6.21a12,12,0,0,0,1.57-1.06c6.48-4.73,5.83-10.91.68-16.13a17.32,17.32,0,0,0-2.25-1.91,10.67,10.67,0,0,0-5.87-1.75C95,120.3,94.07,120.34,93,120.41Z"/><path class="cls-7" d="M101.77,134.94a2.19,2.19,0,0,0-.84,1.26c-.49,1.25-.84,2.55-1.25,3.81-.35,1-1,1.75-1.38,2.74,0,0,0,.08,0,.12a19.48,19.48,0,0,0,3.51-1.68C102.38,139.13,102.8,136.92,101.77,134.94Z"/><path class="cls-7" d="M94.38,135.66a2.17,2.17,0,0,0-.84,1.26c-.5,1.26-.84,2.55-1.26,3.81a17,17,0,0,1-1.18,2.33,9.31,9.31,0,0,0,2.78.49,2.08,2.08,0,0,1,.08-.26C94.68,140.85,95.63,138.06,94.38,135.66Z"/><path class="cls-1" d="M40.58,121.86a12.21,12.21,0,0,0-5.07-1.45,29.16,29.16,0,0,0-3-.07,10.86,10.86,0,0,0-5.95,1.9A17,17,0,0,0,24.45,124c-5.15,5.22-5.79,11.4.69,16.12.53.38,1.07.73,1.56,1.07-.61-2.06-1-4.27,0-6.21a2.15,2.15,0,0,1,.84,1.25c.5,1.26.84,2.56,1.26,3.82.34,1,1,1.75,1.37,2.74,0,0,0,.08,0,.12a11.7,11.7,0,0,0,4.42.68c0-.11,0-.19-.07-.26-.73-2.41-1.68-5.23-.42-7.63A2.2,2.2,0,0,1,35,137c.5,1.26.84,2.55,1.26,3.81a17,17,0,0,0,1.18,2.33c.16,0,.31-.12.46-.16a12.16,12.16,0,0,0,6.79-7.39,14.35,14.35,0,0,0,.53-1.87C46.18,129.1,44.89,124.26,40.58,121.86Z"/><path class="cls-7" d="M28.87,140.05c-.42-1.26-.8-2.56-1.25-3.82a2.2,2.2,0,0,0-.84-1.25c-1,1.94-.61,4.15,0,6.21a18.28,18.28,0,0,0,3.51,1.68s0-.08,0-.12C29.87,141.8,29.18,141,28.87,140.05Z"/><path class="cls-7" d="M35,136.92a2.17,2.17,0,0,0-.84-1.26c-1.25,2.4-.3,5.23.42,7.63,0,.07,0,.19.08.26a10.37,10.37,0,0,0,2.78-.49,17,17,0,0,1-1.18-2.33C35.85,139.44,35.51,138.18,35,136.92Z"/><circle class="cls-11" cx="64.04" cy="122.11" r="3.75"/><circle class="cls-13" cx="64.04" cy="122.11" r="3.23"/><path class="cls-1" d="M64.78,121.55h.36s0,0,0,0a2.51,2.51,0,0,1,0,.27s0,0,0,0h-.54a.05.05,0,0,0,0,0,2.75,2.75,0,0,0-.17.29v0H65s0,0,0,0a2.51,2.51,0,0,1,0,.27s0,0,0,0h-.78s0,0,0,0a5.11,5.11,0,0,0-.18.75c0,.12,0,.25-.05.37s0,0,0,0h-.6s0,0,0,0a7.32,7.32,0,0,1,.18-.91,2.25,2.25,0,0,1,.08-.24h-.42s0,0,0,0,0-.19,0-.29,0,0,0,0h.5s0,0,0,0,.13-.21.2-.32h-.67s0,0,0,0,0-.18,0-.27,0,0,0,0h.83s0,0,.06,0a5.66,5.66,0,0,1,.47-.52l0,0H63s0,0,0,0,.05-.29.07-.44,0,0,0,0h2.23s0,0,0,0-.05.3-.07.45,0,0,0,0a6.17,6.17,0,0,0-.48.54Z"/></svg>