<svg id="Layer_1" data-name="Layer 1" xmlns="http://www.w3.org/2000/svg" viewBox="0 0 600 600"><defs><style>.cls-1{fill:#45484c;}.cls-2{fill:#d3d3d3;}.cls-3{fill:#fefefe;}.cls-4{fill:#0b0808;}.cls-5,.cls-8{fill:#f15a29;}.cls-6{fill:#959595;}.cls-7{fill:#fff;}.cls-8{stroke:#fff;stroke-miterlimit:10;stroke-width:0.5px;}</style></defs><path class="cls-1" d="M394.44,463.28a107.48,107.48,0,0,1-17,13.1c-7.26,12.31-15,32.35-20.67,49.23-4,11.52-6.79,21.46-8.05,26.35,0,0-.48,1.89-.79,3.31a.59.59,0,0,1-.16.48c7.42-17.52,30.45-40.56,52.07-48.6a50.52,50.52,0,0,1,21-6,108.43,108.43,0,0,1,12.15-.31,45.77,45.77,0,0,1,24.3,7.25c-.95-4.1-1.9-8.36-3-12.46-7.57-28.4-17.51-50.49-35.19-61.54-5.36,8.36-11.83,15.78-18.77,23.2C398.38,459.34,396.49,461.39,394.44,463.28Z"/><path class="cls-2" d="M246.9,523.87c4.26,12.15,7.42,22.88,8.84,28.09,0,0,.47,2.21.79,3.63h91.36c0-.16.16-.32.16-.47.31-1.42.79-3.32.79-3.32,1.26-4.89,4.26-14.83,8-26.35C314.75,536.81,276.57,532.39,246.9,523.87Z"/><path class="cls-3" d="M356.73,525.47c5.68-16.89,13.41-36.93,20.67-49.23-29.83,18.14-64.07,17.83-97.36,15.62-17.83-1.26-36.29-5.68-53.33-14.52,7.1,11.52,14.51,30.3,20,46.55C276.57,532.41,314.75,536.83,356.73,525.47Z"/><path class="cls-3" d="M347.73,555.59h32.82C376.61,537,382,516.77,399.8,507c-21.46,7.89-44.49,31.08-52.07,48.6,0-.16.16-.32.16-.47a.77.77,0,0,1-.16.47Z"/><path class="cls-1" d="M183,500.84a50.62,50.62,0,0,1,21,6c21.62,8.05,44.66,31.24,52.08,48.6h.47c-.32-1.42-.79-3.63-.79-3.63-1.42-5.21-4.58-15.93-8.84-28.08-5.68-16.26-12.94-35-20-46.55a119.09,119.09,0,0,1-20-12.78c-3.15-2.53-6.31-5.21-9.3-8.05a135.31,135.31,0,0,1-17.2-19.88c-15.31,11.67-24.3,32.66-31.25,58.7-1.1,4.41-2.21,8.67-3,13.09,7.41-5.21,15.14-7.41,24.61-7.89Q176.14,500.36,183,500.84Z"/><path class="cls-3" d="M203.83,506.83c17.83,9.94,23.19,30,19.25,48.6H255.9C248.48,538.07,225.44,514.88,203.83,506.83Z"/><path class="cls-4" d="M347.73,555.59H223.08a48.79,48.79,0,0,1-2.21,7.73H382.92a61.33,61.33,0,0,1-2.21-7.73Z"/><path class="cls-5" d="M405.32,415.94a171.67,171.67,0,0,1-25.87,20c-26.35,21.78-56,24.93-80.79,26.2-27.93,0-52.55-9.47-79.21-26.67-.63-.47-1.42-.95-2-1.42v-.16a162.77,162.77,0,0,1-22.88-18c-9.47-8.83-21.78-20.19-27-32.18-.48-1.27-1.74-3.79-3.32-6.79-.63,13.89.79,28.24,4.58,38.19a90.35,90.35,0,0,0,11.67,21.3,146.27,146.27,0,0,0,17.2,19.88c3,2.84,6.16,5.52,9.31,8.05a122.88,122.88,0,0,0,20,12.78,138.84,138.84,0,0,0,53.34,14.51c33.29,2.37,67.53,2.69,97.35-15.62a100.35,100.35,0,0,0,17-13.09c2.05-1.9,3.95-3.79,5.84-5.84a185.81,185.81,0,0,0,18.78-23.2c8.2-12.46,14-26.82,15.94-45.6.47-4.89.78-9.62.78-14.2C427.1,389.12,418,404.11,405.32,415.94Z"/><path class="cls-1" d="M454.87,204.66c8.36,2.21,22.56,2.05,32.35,5.68C469.55,193.62,459.45,169,444.61,149,466.55,115,459,42.14,445.09,19.26c-12.63-20.67-19.73-21.62-28.72-1.74-8.05,17.36-18.93,24-29.82,39.14-9.63,13.57-24.62,34.87-28.4,53.17-36-6.94-70.38-7.89-107.14-4.1l-10.1,1c-4.74-17.52-18.46-37.24-27.62-50-10.88-15.15-21.77-21.78-29.82-39.14-9.15-19.72-16.09-18.77-28.72,1.74-14,22.72-21.46,95.78.48,129.7-14.83,19.89-24.78,44.66-42.45,61.23,9.78-3.63,24-3.32,32.35-5.68-10.57,13.57-20.2,25.4-27.3,39.29a103.25,103.25,0,0,0-9.31,25.72,165.07,165.07,0,0,0,21.3-10.1c-11.36,21.46-16.56,69.42,5.05,87.57,2.21-7.42,4.89-13.1,9.94-19.09,2.05,7.89,1.9,15.3,6,23.19,2.52,4.89,9.31,17.52,13.57,25.88,1.58,3,2.84,5.52,3.31,6.79,5.21,12,17.52,23.35,27,32.18a163.77,163.77,0,0,0,22.56,18.15C204.3,415.79,160,340.36,189,298.86c7.11-10.09,16.73-11.83,23.52-12.78-30-20.35-39.29-39.76-39.29-58.54-.16-19.72,8.52-65.32,45.6-66.27,47.65-1.26,65.8,44.81,69.9,60.12,1.73-6.31,9-15,10.1-24.14v0c1.1,9.15,8.36,17.83,10.1,24.14,6.31-20.51,22.24-64.38,67.37-65a37.92,37.92,0,0,1,4.26.16,36.61,36.61,0,0,1,20,8.52c18.46,15.3,25.09,46.55,24,61.06-1.11,18.46-10.42,39.14-39.29,54.91,6.78,1,16.88,8.68,23.35,17.83,30.93,44.19-15.31,118.19-28.25,136.34-.31.31-.63.47-.94.78a161.89,161.89,0,0,0,25.87-20c12.63-11.83,21.62-26.82,30.46-41.65,1.89-3.32,3.79-6.47,5.68-9.63,4.73-7.73,5.84-17.2,10.89-24.61,4.57,3.78,4.26,11.52,4.26,17.2a132.93,132.93,0,0,0,15-30.77c3.47-11.05,9.31-21.78,9.31-33.61,0-7.26-3.63-29.51-10.73-33.45a140.21,140.21,0,0,0,21.3,10.1,103.25,103.25,0,0,0-9.31-25.72C475.07,230.07,465.44,218.08,454.87,204.66ZM160.59,38.83c.63,0,1.26-.16,1.9-.16,16.25.16,31.24,33.29,40.86,44,2.05,2.37,4.9,5.52,7.74,9.15,6.78,8.68,22.09,27,17.19,39-3.94,9.62-17.19,10.25-25.72,13.09-6.78,2.21-9.78,8.05-15.93,10.42-15.94,6.31-21.94-6.94-25.88-19.25C151.28,105.41,153,69,160.59,38.83Zm210.49,90.25c-.15-13.73,9.47-26.82,17.68-37.08,2.84-3.63,5.68-6.78,7.73-9.15,9.62-10.89,24.46-44,40.87-44,.63,0,1.26.15,1.89.15,7.57,30,9.31,66.43,0,96.26-3.79,12-8.36,26-24,19.56-5-2.05-9.16-6.63-14.21-8.52C390,142.49,371.4,144.55,371.08,129.08Z"/><path class="cls-6" d="M186.47,154.49c6.15-2.53,9.15-8.37,15.94-10.42,8.52-2.68,21.77-3.31,25.72-13.09,4.89-11.84-10.42-30.3-17.2-39-2.84-3.63-5.68-6.78-7.73-9.15-9.63-10.89-24.46-44-40.87-44-.63,0-1.26.15-1.9.15-7.57,30-9.3,66.43,0,96.26C164.38,147.54,170.53,160.8,186.47,154.49Z"/><path class="cls-6" d="M415.27,154.8c15.62,6.47,20.19-7.57,24-19.56,9.31-29.83,7.57-66.28,0-96.26-.63,0-1.26-.15-1.89-.15-16.26.15-31.25,33.29-40.87,44-2.05,2.37-4.89,5.52-7.73,9.15-8.21,10.26-17.83,23.35-17.68,37.08.32,15.47,18.94,13.26,29.83,17.2C406.11,148.17,410.22,152.75,415.27,154.8Z"/><path class="cls-3" d="M219.45,435.51c26.66,17.2,51.12,26.67,79.21,26.67,24.77-1.27,54.44-4.42,80.79-26.2.31-.31.63-.47.94-.78,12.94-18.15,59.18-92.15,28.25-136.34-6.47-9.31-16.57-17-23.35-17.83,28.87-15.77,38.18-36.45,39.44-54.91.95-14.51-5.68-45.76-24-61.06a37.12,37.12,0,0,0-20-8.52,37.92,37.92,0,0,0-4.26-.16c-45.13.63-61.07,44.5-67.38,65-1.73-6.31-9-15-10.1-24.14v0c-1.1,9.15-8.36,17.83-10.09,24.14C284.77,206.08,266.79,160,219,161.27c-36.92.95-45.6,46.71-45.6,66.27.16,18.78,9.31,38.19,39.29,58.54-6.78.95-16.41,2.69-23.51,12.78-29,41.5,15.15,116.93,28.09,135.23v.16A9.92,9.92,0,0,1,219.45,435.51ZM365.4,406c-25.56,27.46-42,21.46-50,19.57,12.15-7.26,17.2-8.36,35.19-26.19,7.89-7.74,23.83-30.61,14.83-53C389.86,352.67,377.08,393.38,365.4,406ZM357,196.14c10.73,0,19.41,16.26,19.41,36.29s-8.68,36.3-19.41,36.3-19.41-16.26-19.41-36.3S346.47,196.14,357,196.14ZM280.2,343.83c16.57-9.62,72.74-.47,50,27.78C310.18,396.54,238.86,367.66,280.2,343.83Zm-42-147.69c10.72,0,19.4,16.26,19.4,36.29s-8.68,36.3-19.4,36.3-19.41-16.26-19.41-36.3S227.5,196.14,238.23,196.14Z"/><path class="cls-4" d="M330.22,371.61c22.88-28.41-33.3-37.4-50-27.78C238.86,367.66,310.18,396.54,330.22,371.61Zm-58.54-13.89c.47-4.1,7.57-9.15,15.62-11.2s14.2-.32,13.57,3.94c-.48,4.1-7.58,9.15-15.62,11.2C277.2,363.56,271.2,361.82,271.68,357.72Z"/><path class="cls-4" d="M357,268.73c10.73,0,19.41-16.26,19.41-36.3s-8.68-36.29-19.41-36.29-19.41,16.26-19.41,36.29S346.47,268.73,357,268.73Zm-12.78-42.45c-3.63-2.52-2.84-9.78,1.42-16.09,4.42-6.32,10.73-9.31,14.36-6.79s2.84,9.78-1.42,16.1S347.89,228.81,344.26,226.28Z"/><path class="cls-4" d="M238.23,268.73c10.72,0,19.4-16.26,19.4-36.3s-8.68-36.29-19.4-36.29-19.41,16.26-19.41,36.29S227.5,268.73,238.23,268.73Zm-12.47-42.45c-3.63-2.52-2.84-9.78,1.42-16.09,4.42-6.32,10.73-9.31,14.36-6.79s2.84,9.78-1.42,16.1S229.39,228.81,225.76,226.28Z"/><path class="cls-4" d="M365.25,346.36c9,22.25-6.95,45.28-14.84,53-17.83,17.83-22.88,18.93-35,26.19,8.21,1.89,24.46,7.89,50-19.72C377.08,393.38,389.86,352.67,365.25,346.36Z"/><path class="cls-7" d="M240.12,219.5c4.42-6.32,5-13.42,1.42-16.1-3.63-2.52-9.94.47-14.36,6.79s-5.05,13.41-1.42,16.09C229.39,228.81,235.86,225.81,240.12,219.5Z"/><path class="cls-7" d="M358.62,219.5c4.42-6.32,5.05-13.42,1.42-16.1-3.63-2.52-9.94.47-14.36,6.79s-5.05,13.41-1.42,16.09C347.89,228.81,354.2,225.81,358.62,219.5Z"/><path class="cls-7" d="M285.4,361.51c8.05-2.05,15-7.1,15.63-11.21.47-4.1-5.53-5.83-13.57-3.94s-15,7.1-15.63,11.2S277.2,363.56,285.4,361.51Z"/><path class="cls-7" d="M420.79,500.84a50.67,50.67,0,0,0-21,6c-17.83,9.94-23.19,30-19.25,48.6a47.47,47.47,0,0,0,2.21,7.73c4.89,13.57,14.68,25.41,28.09,30.61.63.16,1.26.48,1.89.64,1.58-3.32,3.79-6,4.89-9.63,1.74-5.21,3.32-10.57,5.21-15.78.79-2,1.42-3.94,3.47-5.21,5.21,9.94,1.26,21.62-1.73,31.56-.16.32-.16.79-.32,1.11a52,52,0,0,0,18.3-2.84c0-.16.16-.32.16-.48,1.58-4.1,4.26-7.1,5.68-11.36,1.74-5.21,3.32-10.57,5.21-15.78.79-2,1.42-3.94,3.47-5.2,4.26,8,2.52,17.2,0,25.72a53.92,53.92,0,0,0,6.47-4.42c26.82-19.57,24.14-45.13,2.84-66.75a69.26,69.26,0,0,0-9.31-7.89c-7.26-4.89-15-6.94-24.3-7.26C429.15,500.36,425.21,500.52,420.79,500.84Z"/><path class="cls-1" d="M457.08,561c-2.05,1.27-2.68,3.16-3.47,5.21-2.05,5.21-3.47,10.57-5.21,15.78-1.42,4.26-4.1,7.26-5.68,11.36,0,.16-.16.32-.16.47a79.4,79.4,0,0,0,14.52-6.94C459.6,578.31,461.34,569.16,457.08,561Z"/><path class="cls-1" d="M426.47,564c-2.05,1.26-2.68,3.16-3.47,5.21-2.05,5.21-3.47,10.57-5.21,15.78-1.1,3.63-3.31,6.31-4.89,9.62a38.67,38.67,0,0,0,11.52,2.05c.16-.47.16-.78.31-1.1C427.73,585.41,431.68,573.89,426.47,564Z"/><path class="cls-7" d="M203.83,506.83a50.67,50.67,0,0,0-21-6,114.5,114.5,0,0,0-12.62-.32c-9.31.47-17,2.68-24.62,7.89a69.49,69.49,0,0,0-8.52,7.26c-21.3,21.62-24,47.18,2.84,66.74,2.21,1.58,4.42,3,6.47,4.42-2.52-8.52-4.26-17.67,0-25.72,2.05,1.26,2.68,3.16,3.47,5.21,2,5.21,3.47,10.57,5.21,15.78,1.42,4.26,4.1,7.26,5.68,11.36,0,.16.16.31.16.47a48.4,48.4,0,0,0,18.3,2.84c-.16-.47-.16-.79-.31-1.1-3-9.94-7-21.62-1.74-31.56,2.05,1.26,2.68,3.16,3.47,5.21,2.05,5.2,3.47,10.57,5.21,15.78,1.1,3.62,3.31,6.31,4.89,9.62.63-.16,1.26-.47,1.89-.63,13.42-5.21,23.2-17,28.09-30.61a61.82,61.82,0,0,0,2.21-7.73C227,536.81,221.66,516.77,203.83,506.83Z"/><path class="cls-1" d="M155.39,582.1c-1.74-5.21-3.32-10.57-5.21-15.78-.79-2.05-1.42-4-3.47-5.21-4.26,8-2.53,17.2,0,25.72a74.94,74.94,0,0,0,14.51,6.94c0-.15-.15-.31-.15-.47C159.49,589.36,156.65,586.2,155.39,582.1Z"/><path class="cls-1" d="M180.79,569.16c-.79-2-1.42-3.95-3.47-5.21-5.21,9.94-1.26,21.62,1.73,31.56.16.32.16.79.32,1.1a44.59,44.59,0,0,0,11.52-2.05c-1.58-3.31-3.79-6-4.89-9.62C184.26,579.57,182.84,574.37,180.79,569.16Z"/><circle class="cls-5" cx="300.91" cy="507.85" r="15.53"/><circle class="cls-8" cx="300.91" cy="507.85" r="13.38"/><path class="cls-7" d="M304,505.56h1.53c.11,0,.14,0,.12.14-.06.37-.11.74-.16,1.11,0,.1-.06.12-.15.12h-2.22a.22.22,0,0,0-.21.12c-.25.39-.49.79-.7,1.2l0,.09h2.93c.12,0,.17,0,.14.15-.07.37-.12.75-.17,1.12,0,.12,0,.15-.17.15h-3.22c-.1,0-.13,0-.16.12a16.11,16.11,0,0,0-.75,3.12c-.08.5-.16,1-.23,1.5,0,.09,0,.1-.12.1h-2.49s-.11,0-.09-.07a25.31,25.31,0,0,1,.71-3.77c.1-.33.21-.65.33-1h-1.71c-.11,0-.12,0-.11-.13.07-.4.13-.81.18-1.21,0-.09.06-.08.12-.08h2.06c.06,0,.11,0,.14-.06.24-.46.53-.89.83-1.35h-2.79c-.12,0-.14,0-.12-.14.06-.36.12-.73.16-1.09,0-.12.07-.14.17-.14h3.46a.28.28,0,0,0,.22-.1,23,23,0,0,1,1.94-2.13.28.28,0,0,1,.11-.08s0,0,0,0H296.8c-.1,0-.15,0-.13-.14.1-.61.19-1.23.27-1.84,0-.11.07-.11.15-.11h9.2c.1,0,.13,0,.12.13-.1.62-.19,1.23-.28,1.85a.27.27,0,0,1-.1.19c-.71.7-1.38,1.43-2,2.2Z"/></svg>