<svg id="Layer_1" data-name="Layer 1" xmlns="http://www.w3.org/2000/svg" viewBox="0 0 704 144"><defs><style>.cls-1{fill:#0b0808;}.cls-2,.cls-3,.cls-4,.cls-5{fill:none;stroke:#f15a24;}.cls-12,.cls-2{stroke-miterlimit:10;}.cls-2{stroke-width:3px;}.cls-3{stroke-miterlimit:10;stroke-width:3px;}.cls-4{stroke-miterlimit:10;stroke-width:3px;}.cls-5{stroke-miterlimit:10;stroke-width:3px;}.cls-6{fill:#45484c;}.cls-7{fill:#d3d3d3;}.cls-8{fill:#fefefe;}.cls-12,.cls-9{fill:#f15a29;}.cls-10{fill:#959595;}.cls-11{fill:#fff;}.cls-12{stroke:#fff;stroke-width:0.5px;}</style></defs><path class="cls-1" d="M167.9,112.4a71.83,71.83,0,0,1-8.7-.8,30,30,0,0,1-7.4-2.1,17.77,17.77,0,0,1-6-3.6,18,18,0,0,1-4.1-5.5,22.32,22.32,0,0,1-2-7.8.88.88,0,0,1,.8-.9,1.72,1.72,0,0,0,.8.1c2.3,0,5.7-.1,10.3-.2s8.1-.2,10.3-.2a1.82,1.82,0,0,1,1.4.6,3.22,3.22,0,0,1,.8,1.4c.2.6.5,1.1.7,1.6a3.43,3.43,0,0,0,1.5,1.4,5.4,5.4,0,0,0,2.7.6,6.06,6.06,0,0,0,3.5-1.1,3.62,3.62,0,0,0,1.5-3.1,2.92,2.92,0,0,0-1.3-2.3,9.53,9.53,0,0,0-3.5-1.7c-1.5-.4-2.8-.8-4.1-1.1s-2.6-.6-4-.8-2.2-.4-2.4-.4c-6.6-1.8-11.4-4-14.3-6.7s-4.4-6.3-4.4-11a20.66,20.66,0,0,1,1.8-8.8,19.35,19.35,0,0,1,4.7-6.4,23.37,23.37,0,0,1,6.9-4.1,34.45,34.45,0,0,1,8-2.3,57.1,57.1,0,0,1,8.4-.7c7.7,0,13.8,1.4,18.4,4.3,1.7,1.7,2.9,2.9,3.7,3.8s1.5,1.9,2.3,3a12.63,12.63,0,0,1,1.5,3.4,21.08,21.08,0,0,1,.6,4.1l-1.5,1.5q-8.4.3-18.9.3a5.84,5.84,0,0,1-2.1-.3,2.33,2.33,0,0,1-1.1-.7,4.05,4.05,0,0,1-.5-.9c-.2-.3-.3-.6-.5-.9a2.18,2.18,0,0,0-.9-.7,5,5,0,0,0-1.9-.3,4.14,4.14,0,0,0-1,.1c-.5.1-1,.2-1.7.4a8.86,8.86,0,0,0-1.7.8,1.57,1.57,0,0,0-.7,1.3,2.06,2.06,0,0,0,.9,1.6,9.3,9.3,0,0,0,1.9,1.1c.7.2,1.5.5,2.5.7s1.6.4,1.9.5c6,1.5,9.5,2.4,10.7,2.8,6,1.9,10.2,4.4,12.7,7.4a16.34,16.34,0,0,1,3.4,10.7,21.4,21.4,0,0,1-3.6,12.5,16.94,16.94,0,0,1-4.1,3.9,22.16,22.16,0,0,1-5,2.7,29.38,29.38,0,0,1-5.7,1.7c-2.1.4-4.1.8-5.9,1A35.82,35.82,0,0,0,167.9,112.4Z"/><path class="cls-1" d="M228.7,109.6a31.73,31.73,0,0,1-12.3-2.3,23.42,23.42,0,0,1-8.9-6.4,28,28,0,0,1-5.3-9.6,38.23,38.23,0,0,1-1.8-12v-.6c0-.2.1-.7.1-1.4a10.62,10.62,0,0,0,.1-1.5c0-.2.1-.7.1-1.3a4.64,4.64,0,0,1,.2-1.4,12.29,12.29,0,0,0,.2-1.3c.1-.6.2-1,.3-1.4s.3-.8.4-1.3.3-1,.5-1.5a9.14,9.14,0,0,1,.7-1.4v.1a23.85,23.85,0,0,1,4.8-6.8,22.78,22.78,0,0,1,6.3-4.5,29.48,29.48,0,0,1,7.1-2.3A42.26,42.26,0,0,1,238,53a25.36,25.36,0,0,1,6.8,2.7,18.06,18.06,0,0,1,4.6,4.1,16.64,16.64,0,0,1,2.9,4.9,23.33,23.33,0,0,1,1.4,5.5v3.5a1.46,1.46,0,0,1-.6.9,3.58,3.58,0,0,1-1.1.4c-.4,0-.9.1-1.6.1H233V71.6a4.2,4.2,0,0,0-1.2-2.5,3,3,0,0,0-2.4-1.1,5.09,5.09,0,0,0-2.2.5,5,5,0,0,0-1.5,1.4,6.67,6.67,0,0,0-.9,2.1,18.43,18.43,0,0,0-.5,2.5c-.1.9-.1,1.7-.2,2.6v8.3a13.4,13.4,0,0,0,.1,2,18.14,18.14,0,0,0,.5,2.5,5.61,5.61,0,0,0,1.4,2.5,3.66,3.66,0,0,0,2.5.9,2.45,2.45,0,0,0,2.3-1.3,16.31,16.31,0,0,0,1.3-3.2,4.83,4.83,0,0,1,1.2-2.5H253c.9,0,1.4.5,1.5,1.6v1.6a21.36,21.36,0,0,1-6,13.2,24,24,0,0,1-12.8,6.4v.2C233.8,109.4,231.5,109.6,228.7,109.6Z"/><path class="cls-1" d="M312.5,55.2v50.4a5.72,5.72,0,0,1-.1,1.4c-.1.4-.2.7-.3,1a1,1,0,0,1-.8.5H290.4v-.9a5.92,5.92,0,0,0-.6-.4,2.49,2.49,0,0,1-.7-.5V90.1c0-.6,0-.9-.1-1s-.5-.1-1.2-.1H285a21.51,21.51,0,0,0-2.3.2v17.7q-.15.75-.6.9a4.64,4.64,0,0,1-1.4.2h-1.9c-1.3,0-3.3,0-6,.1s-4.8.1-6.3.1H261c-1.2,0-1.8-.7-1.8-2l.2-51.7c0-.1,0-.3.1-.3a2.74,2.74,0,0,1,.5-.4,1.73,1.73,0,0,1,.4-.3h22.1V71.1h7.1V53h20.9a1.81,1.81,0,0,1,1.4.5A2.06,2.06,0,0,1,312.5,55.2Z"/><path class="cls-1" d="M374.8,53.5c.3.1.6.6.8,1.4a13.54,13.54,0,0,1,.3,3.1v3.6c0,1.1-.1,2.3-.1,3.5s-.1,2-.1,2.3c-.1,1.1-.1,2.6-.1,4.6v4.3c0,1.9,0,4.5.1,7.9s.1,5.8.1,7.4v14.9c-.1.9-.9,1.4-2.3,1.4h-23c-.5-.1-1.1-1.3-1.9-3.4-.5-1.4-1.4-3.8-2.6-7.1s-2.3-6.2-3.1-8.7-1.7-4.9-2.4-7.3v0c-.1,1.8-.2,4.5-.2,8.1s-.2,6.2-.2,8v8.4a3.42,3.42,0,0,1-.3,1.7,2.56,2.56,0,0,1-1.5.8H321.4l-1.8-1.8q.15-6.75.3-21.3c.1-9.7.2-16.8.3-21.5V54.9c.3-1,.6-1.5,1-1.5v.2c1.9,0,4.8-.1,8.8-.2s7-.2,9-.2h7c.5.2.8.4.8.7v.3c1,2.7,2,5.4,3,8.2s2.2,6.3,3.6,10.3,2.4,6.8,2.9,8.3V75c.5-9.6.8-16.5.8-20.5,0-.4.3-.7.9-.8a17,17,0,0,1,2.8-.2Z"/><path class="cls-1" d="M558.2,53a62.39,62.39,0,0,1,10.1.7,35.69,35.69,0,0,1,8.6,2.6,23.27,23.27,0,0,1,6.9,4.9,22,22,0,0,1,4.4,7.9,37.63,37.63,0,0,1,.5,19.9,26.38,26.38,0,0,1-3,7,31.82,31.82,0,0,1-4.4,5.2,21.62,21.62,0,0,1-5.4,3.7,27.51,27.51,0,0,1-5.8,2.2,29.12,29.12,0,0,1-5.8.9H536V53.7h1a45.14,45.14,0,0,0,5.4-.4,45.14,45.14,0,0,1,5.4-.4h10.4Zm.5,42.3a8.73,8.73,0,0,0,3.7-.7,7.31,7.31,0,0,0,2.6-1.9,12,12,0,0,0,1.6-2.7,13.07,13.07,0,0,0,.9-3.3c.2-1.3.3-2.4.4-3.3a31.12,31.12,0,0,0,.1-3.2v-3c0-.2-.1-1.1-.2-2.8a13.05,13.05,0,0,0-.9-4.3,8.55,8.55,0,0,0-1.5-2.2,9.36,9.36,0,0,0-1.6-1.4,7.5,7.5,0,0,0-1.8-.8,6.8,6.8,0,0,0-1.9-.3,13.42,13.42,0,0,0-2.1-.1v.9h-1.2v29h1.9Z"/><path class="cls-1" d="M595.9,108.3l-.4-.4a1.83,1.83,0,0,1-.6-.8V89.4c0-2.3.1-5.9.3-10.7s.3-8.5.3-11c0-.5-.1-1.7-.2-3.5s-.2-3.2-.2-4.2c0-3.9.5-6.2,1.4-7.1,5.7.1,9.9.2,12.7.2h3.9a12.17,12.17,0,0,1,2.1.1c.1-.1.2-.1.4-.1a2.64,2.64,0,0,1,.7.1,4.14,4.14,0,0,0,1,.1c.7.1,1.3.7,1.7,1.7v5a1.79,1.79,0,0,1-.5.7,1.46,1.46,0,0,0-.5.8V91.4h18.4c.2,0,.4.2.7.4a1.33,1.33,0,0,1,.3,1v13.7c-.2,1.1-1.5,1.6-3.9,1.6H595.9Z"/><path class="cls-1" d="M641.2,57a13.28,13.28,0,0,1,.2-2.9,1.21,1.21,0,0,1,1.2-.6h1a2.22,2.22,0,0,1,.9.1h2.1c2.8,0,6.9-.1,12.5-.2s9.8-.2,12.6-.2h10.9c.7.1,1.1.4,1.1,1.1V68c0,.2-.1.3-.1.4a.22.22,0,0,1-.2.2c-.1,0-.2.1-.4.3a.91.91,0,0,1-.5.3h-19v5.1h1.8c1.6,0,4-.1,7.3-.2s5.8-.2,7.5-.2a2.17,2.17,0,0,1,1.6.5,1.7,1.7,0,0,1,.4,1.3,2.25,2.25,0,0,1-.1.7,2.25,2.25,0,0,0-.1.7v4.3a10.87,10.87,0,0,0,.1,1.8,9.15,9.15,0,0,1,.1,1.6v1.1a4.88,4.88,0,0,1-.3.7.52.52,0,0,1-.4.2v-.1c-1,0-2.8.1-5.2.2s-4.5.2-5.9.2h-6.6v5.2h2c1.2,0,3,0,5.5-.1s4.1-.1,5.2-.1h5.2a5,5,0,0,1,2.7.5c.1.2.2.3.3.5v13.1a2.27,2.27,0,0,1-.3,1.3,1.36,1.36,0,0,1-1.2.5H642.5l-1.2-1.1V57Z"/><path class="cls-2" d="M516.3,95.1a14,14,0,0,0-3.3-5.3,15.91,15.91,0,0,0-1.9-1.6c-4-3.1-4-8.4-6.8-11.9-1.4-1.8-4.2-3.9-10-4.4h-.4c-5.8.6-8.6,2.6-10,4.4-2.8,3.5-2.8,8.8-6.8,11.9a14.24,14.24,0,0,0-1.9,1.6,14,14,0,0,0-3.3,5.3c-1,3.1-.9,7.9,2.2,11a9.32,9.32,0,0,0,5.3,2.5c4.1.5,5.9-2.4,12.2-2.8a16.45,16.45,0,0,1,2.3,0h2.3c6.3.4,8.1,3.3,12.2,2.8a9.07,9.07,0,0,0,5.3-2.5C517.2,103,517.2,98.1,516.3,95.1Z"/><ellipse class="cls-3" cx="468.21" cy="76.09" rx="7.7" ry="11.4" transform="matrix(0.93, -0.36, 0.36, 0.93, 3.75, 172.46)"/><ellipse class="cls-3" cx="520.21" cy="76.11" rx="11.4" ry="7.7" transform="translate(263.11 534.7) rotate(-69.05)"/><ellipse class="cls-4" cx="483.19" cy="58.12" rx="7.7" ry="11.4" transform="translate(-3.43 65.52) rotate(-7.73)"/><ellipse class="cls-5" cx="505.16" cy="58.06" rx="11.4" ry="7.7" transform="translate(379.68 550.82) rotate(-82.27)"/><path class="cls-2" d="M440.9,95.5a14,14,0,0,0-3.3-5.3,15.91,15.91,0,0,0-1.9-1.6c-4-3.1-4-8.4-6.8-11.9-1.4-1.8-4.2-3.9-10-4.4h-.4c-5.8.6-8.6,2.6-10,4.4-2.8,3.5-2.8,8.8-6.8,11.9a14.24,14.24,0,0,0-1.9,1.6,14,14,0,0,0-3.3,5.3c-1,3.1-.9,7.9,2.2,11A9.32,9.32,0,0,0,404,109c4.1.5,5.9-2.4,12.2-2.8a16.45,16.45,0,0,1,2.3,0h2.3c6.3.4,8.1,3.3,12.2,2.8a9.07,9.07,0,0,0,5.3-2.5C441.8,103.4,441.8,98.6,440.9,95.5Z"/><ellipse class="cls-3" cx="392.8" cy="76.49" rx="7.7" ry="11.4" transform="translate(-1.38 145.52) rotate(-20.95)"/><ellipse class="cls-3" cx="444.78" cy="76.51" rx="11.4" ry="7.7" transform="translate(214.28 464.52) rotate(-69.05)"/><ellipse class="cls-4" cx="407.79" cy="58.51" rx="7.7" ry="11.4" transform="translate(-4.16 55.38) rotate(-7.73)"/><ellipse class="cls-5" cx="429.71" cy="58.56" rx="11.4" ry="7.7" transform="translate(313.89 476.49) rotate(-82.27)"/><path class="cls-6" d="M86.64,111.59a25.57,25.57,0,0,1-4.12,3.16,71.49,71.49,0,0,0-5,11.9c-1,2.78-1.64,5.19-1.94,6.37,0,0-.11.45-.19.8a.13.13,0,0,1,0,.11c1.79-4.23,7.36-9.8,12.58-11.74A12.21,12.21,0,0,1,93,120.74a27.21,27.21,0,0,1,2.94-.08,11,11,0,0,1,5.87,1.76c-.23-1-.46-2-.72-3-1.83-6.87-4.24-12.2-8.51-14.87a39.38,39.38,0,0,1-4.53,5.6C87.59,110.64,87.13,111.13,86.64,111.59Z"/><path class="cls-7" d="M51,126.23c1,2.94,1.79,5.53,2.13,6.79,0,0,.12.53.19.87H75.39s0-.07,0-.11c.07-.34.19-.8.19-.8.3-1.18,1-3.58,1.94-6.37A49.09,49.09,0,0,1,51,126.23Z"/><path class="cls-8" d="M77.52,126.62a71.14,71.14,0,0,1,5-11.9C75.31,119.1,67,119,59,118.49A33.08,33.08,0,0,1,46.11,115,62.37,62.37,0,0,1,51,126.23,49.21,49.21,0,0,0,77.52,126.62Z"/><path class="cls-8" d="M75.35,133.89h7.93c-1-4.49.34-9.38,4.65-11.74-5.18,1.91-10.75,7.51-12.58,11.74,0,0,0-.07,0-.11s0,.08,0,.11Z"/><path class="cls-6" d="M35.55,120.66a12.4,12.4,0,0,1,5.07,1.45c5.22,2,10.79,7.55,12.58,11.75h.11c-.07-.35-.19-.88-.19-.88-.34-1.26-1.1-3.85-2.13-6.79A65.35,65.35,0,0,0,46.15,115a29.11,29.11,0,0,1-4.85-3.09c-.76-.61-1.52-1.26-2.25-2a32.16,32.16,0,0,1-4.15-4.8c-3.7,2.82-5.87,7.89-7.55,14.18-.27,1.07-.53,2.1-.73,3.17a10.71,10.71,0,0,1,5.95-1.91C33.45,120.55,34.44,120.59,35.55,120.66Z"/><path class="cls-8" d="M40.58,122.11c4.31,2.4,5.6,7.25,4.65,11.75h7.93C51.37,129.66,45.8,124.06,40.58,122.11Z"/><path class="cls-1" d="M75.35,133.89H45.23a10.93,10.93,0,0,1-.53,1.87H83.85a14.35,14.35,0,0,1-.53-1.87Z"/><path class="cls-9" d="M89.27,100.15A41.45,41.45,0,0,1,83,105c-6.36,5.27-13.53,6-19.52,6.33-6.75,0-12.69-2.28-19.14-6.44l-.49-.34v0a39.15,39.15,0,0,1-5.53-4.35C36,98,33.07,95.27,31.81,92.37c-.11-.3-.42-.91-.8-1.64A24.59,24.59,0,0,0,32.12,100a21.31,21.31,0,0,0,2.82,5.15,34.65,34.65,0,0,0,4.15,4.8c.73.69,1.49,1.34,2.25,2A30.44,30.44,0,0,0,46.18,115a33.59,33.59,0,0,0,12.89,3.5c8.05.57,16.32.65,23.52-3.77a23.74,23.74,0,0,0,4.12-3.17,18.76,18.76,0,0,0,1.41-1.41,44.32,44.32,0,0,0,4.54-5.6,23.7,23.7,0,0,0,3.85-11,34.1,34.1,0,0,0,.19-3.43C94.53,93.67,92.32,97.29,89.27,100.15Z"/><path class="cls-6" d="M101.24,49.1c2,.53,5.45.5,7.81,1.37-4.27-4-6.71-10-10.29-14.83,5.3-8.2,3.47-25.81.11-31.34-3.05-5-4.76-5.22-6.93-.42-2,4.2-4.58,5.8-7.21,9.46-2.33,3.28-6,8.42-6.86,12.85A86.38,86.38,0,0,0,52,25.2l-2.44.22c-1.14-4.23-4.46-9-6.67-12.08-2.63-3.66-5.26-5.26-7.21-9.46-2.21-4.76-3.89-4.53-6.94.42-3.39,5.49-5.18,23.14.12,31.34-3.59,4.81-6,10.79-10.26,14.8,2.36-.88,5.8-.81,7.82-1.38a60.74,60.74,0,0,0-6.6,9.5,25,25,0,0,0-2.25,6.21,39.84,39.84,0,0,0,5.15-2.44c-2.75,5.19-4,16.78,1.22,21.16a11.85,11.85,0,0,1,2.4-4.61c.5,1.9.46,3.7,1.45,5.6.61,1.18,2.25,4.23,3.28,6.25.38.73.68,1.34.8,1.64,1.26,2.9,4.23,5.65,6.52,7.78a40,40,0,0,0,5.45,4.39C40.69,100.11,30,81.89,37,71.86a7.55,7.55,0,0,1,5.68-3.09c-7.25-4.91-9.5-9.6-9.5-14.14,0-4.77,2.06-15.79,11-16,11.52-.31,15.9,10.82,16.89,14.52.42-1.52,2.17-3.62,2.44-5.83v0c.27,2.21,2,4.31,2.44,5.83,1.53-5,5.38-15.55,16.28-15.71a8.77,8.77,0,0,1,5.87,2.1c4.46,3.7,6.07,11.25,5.8,14.76-.27,4.46-2.52,9.45-9.5,13.26,1.64.23,4.08,2.1,5.65,4.31,7.47,10.68-3.7,28.56-6.83,32.94A2.11,2.11,0,0,1,83,105a39,39,0,0,0,6.26-4.84c3-2.86,5.22-6.48,7.36-10.06.45-.8.91-1.57,1.37-2.33,1.14-1.87,1.41-4.15,2.63-6,1.1.92,1,2.79,1,4.16a32.1,32.1,0,0,0,3.62-7.44c.84-2.66,2.25-5.26,2.25-8.12,0-1.75-.88-7.13-2.59-8.08a33.22,33.22,0,0,0,5.14,2.44,24.25,24.25,0,0,0-2.25-6.21A60.38,60.38,0,0,0,101.24,49.1ZM30.13,9c.16,0,.31,0,.46,0,3.93,0,7.55,8,9.87,10.64.5.57,1.19,1.33,1.87,2.21,1.64,2.1,5.34,6.52,4.16,9.42-1,2.32-4.16,2.48-6.22,3.16-1.64.54-2.36,1.95-3.85,2.52-3.85,1.52-5.3-1.68-6.25-4.65C27.88,25.12,28.3,16.31,30.13,9ZM81,30.84c0-3.32,2.29-6.48,4.27-9,.69-.88,1.38-1.64,1.87-2.21C89.46,17,93,9,97,9c.15,0,.3,0,.45,0,1.83,7.24,2.25,16.05,0,23.25-.91,2.9-2,6.3-5.79,4.73-1.22-.49-2.21-1.6-3.43-2.06C85.57,34.08,81.07,34.57,81,30.84Z"/><path class="cls-10" d="M36.39,37c1.48-.61,2.21-2,3.85-2.52,2-.65,5.26-.8,6.21-3.16,1.18-2.86-2.52-7.32-4.16-9.42-.68-.88-1.37-1.64-1.86-2.21C38.1,17,34.52,9,30.55,9c-.15,0-.3,0-.46,0-1.83,7.24-2.25,16.05,0,23.25C31.05,35.3,32.53,38.5,36.39,37Z"/><path class="cls-10" d="M91.67,37.05c3.77,1.57,4.88-1.83,5.79-4.73,2.25-7.2,1.83-16,0-23.25-.15,0-.3,0-.45,0-3.93,0-7.55,8-9.88,10.64-.49.57-1.18,1.33-1.87,2.21-2,2.48-4.3,5.64-4.27,9,.08,3.73,4.58,3.2,7.21,4.15C89.46,35.45,90.45,36.56,91.67,37.05Z"/><path class="cls-8" d="M44.35,104.88c6.45,4.16,12.36,6.44,19.14,6.44,6-.3,13.16-1.06,19.52-6.33a2.11,2.11,0,0,0,.23-.19c3.13-4.38,14.3-22.26,6.83-32.94-1.57-2.25-4-4.12-5.65-4.31,7-3.81,9.23-8.8,9.54-13.26.23-3.51-1.38-11.06-5.8-14.76a9,9,0,0,0-4.84-2.06,8.87,8.87,0,0,0-1,0C71.39,37.59,67.53,48.19,66,53.14c-.42-1.52-2.17-3.62-2.44-5.83v0c-.27,2.21-2,4.31-2.44,5.83-1-3.7-5.34-14.83-16.89-14.52-8.92.22-11,11.28-11,16,0,4.54,2.25,9.23,9.49,14.14A7.57,7.57,0,0,0,37,71.86c-7,10,3.66,28.25,6.79,32.68v0A2.73,2.73,0,0,1,44.35,104.88Zm35.27-7.13c-6.18,6.63-10.14,5.19-12.09,4.73,2.94-1.76,4.16-2,8.51-6.33,1.9-1.87,5.75-7.4,3.58-12.81C85.53,84.86,82.44,94.7,79.62,97.75ZM77.6,47c2.59,0,4.69,3.93,4.69,8.77s-2.1,8.77-4.69,8.77-4.69-3.93-4.69-8.77S75.05,47,77.6,47ZM59,82.73c4-2.33,17.58-.12,12.09,6.71C66.28,95.46,49,88.49,59,82.73ZM48.89,47c2.59,0,4.69,3.93,4.69,8.77s-2.1,8.77-4.69,8.77-4.69-3.93-4.69-8.77S46.3,47,48.89,47Z"/><path class="cls-1" d="M71.12,89.44c5.53-6.86-8.05-9-12.09-6.71C49,88.49,66.28,95.46,71.12,89.44ZM57,86.08c.12-1,1.83-2.21,3.78-2.7s3.43-.08,3.28,1S62.2,86.54,60.25,87,56.86,87.07,57,86.08Z"/><path class="cls-1" d="M77.6,64.58c2.59,0,4.69-3.93,4.69-8.77S80.19,47,77.6,47,72.91,51,72.91,55.81,75.05,64.58,77.6,64.58ZM74.51,54.32c-.88-.61-.68-2.36.35-3.88s2.59-2.25,3.46-1.64S79,51.16,78,52.68,75.39,54.93,74.51,54.32Z"/><path class="cls-1" d="M48.89,64.58c2.59,0,4.69-3.93,4.69-8.77S51.48,47,48.89,47,44.2,51,44.2,55.81,46.3,64.58,48.89,64.58Zm-3-10.26c-.88-.61-.69-2.36.34-3.88s2.59-2.25,3.47-1.64.69,2.36-.34,3.88S46.76,54.93,45.88,54.32Z"/><path class="cls-1" d="M79.58,83.34c2.18,5.37-1.67,10.94-3.58,12.81-4.31,4.31-5.53,4.57-8.47,6.33,2,.46,5.91,1.9,12.09-4.77C82.44,94.7,85.53,84.86,79.58,83.34Z"/><path class="cls-11" d="M49.35,52.68c1.07-1.52,1.22-3.24.34-3.88s-2.4.11-3.47,1.64-1.22,3.24-.34,3.88S48.32,54.21,49.35,52.68Z"/><path class="cls-11" d="M78,52.68c1.07-1.52,1.22-3.24.34-3.88s-2.4.11-3.46,1.64-1.23,3.24-.35,3.88S76.91,54.21,78,52.68Z"/><path class="cls-11" d="M60.29,87c2-.5,3.62-1.72,3.78-2.71s-1.34-1.41-3.28-1S57.16,85.05,57,86.05,58.31,87.49,60.29,87Z"/><path class="cls-11" d="M93,120.66a12.36,12.36,0,0,0-5.07,1.45c-4.31,2.4-5.6,7.25-4.65,11.75a13,13,0,0,0,.53,1.86,12.23,12.23,0,0,0,6.79,7.4c.15,0,.31.12.46.15A17.42,17.42,0,0,0,92.24,141c.42-1.26.8-2.56,1.26-3.82a2.15,2.15,0,0,1,.84-1.25c1.26,2.4.3,5.22-.42,7.62,0,.08,0,.19-.08.27a12.34,12.34,0,0,0,4.42-.69s0-.07,0-.11c.38-1,1-1.72,1.38-2.75.41-1.26.8-2.55,1.25-3.81a2.22,2.22,0,0,1,.84-1.26c1,1.95.61,4.16,0,6.22a13.25,13.25,0,0,0,1.57-1.07c6.48-4.73,5.83-10.9.68-16.13a16.46,16.46,0,0,0-2.25-1.9,10.6,10.6,0,0,0-5.87-1.76C95,120.55,94.07,120.59,93,120.66Z"/><path class="cls-6" d="M101.77,135.19a2.22,2.22,0,0,0-.84,1.26c-.49,1.26-.84,2.55-1.25,3.81-.35,1-1,1.76-1.38,2.75,0,0,0,.07,0,.11a18.83,18.83,0,0,0,3.51-1.68C102.38,139.38,102.8,137.17,101.77,135.19Z"/><path class="cls-6" d="M94.38,135.91a2.2,2.2,0,0,0-.84,1.26c-.5,1.26-.84,2.56-1.26,3.82a17.42,17.42,0,0,1-1.18,2.32,9.32,9.32,0,0,0,2.78.5,2.3,2.3,0,0,1,.08-.27C94.68,141.1,95.63,138.32,94.38,135.91Z"/><path class="cls-11" d="M40.58,122.11a12.36,12.36,0,0,0-5.07-1.45,29.16,29.16,0,0,0-3-.07,10.94,10.94,0,0,0-5.95,1.9,17,17,0,0,0-2.06,1.76c-5.15,5.22-5.79,11.4.69,16.13.53.38,1.07.72,1.56,1.06-.61-2.06-1-4.27,0-6.21a2.14,2.14,0,0,1,.84,1.26c.5,1.25.84,2.55,1.26,3.81.34,1,1,1.75,1.37,2.74,0,0,0,.08,0,.12a11.92,11.92,0,0,0,4.42.69c0-.12,0-.2-.07-.27-.73-2.4-1.68-5.23-.42-7.63a2.24,2.24,0,0,1,.83,1.26c.5,1.26.84,2.56,1.26,3.81a17,17,0,0,0,1.18,2.33c.16,0,.31-.11.46-.15a12.2,12.2,0,0,0,6.79-7.4,14.35,14.35,0,0,0,.53-1.87C46.18,129.36,44.89,124.51,40.58,122.11Z"/><path class="cls-6" d="M28.87,140.3c-.41-1.26-.8-2.56-1.25-3.81a2.19,2.19,0,0,0-.84-1.26c-1,1.94-.61,4.15,0,6.21a17.7,17.7,0,0,0,3.51,1.68s0-.08,0-.11C29.87,142.05,29.18,141.29,28.87,140.3Z"/><path class="cls-6" d="M35,137.17a2.2,2.2,0,0,0-.84-1.26c-1.25,2.41-.3,5.23.42,7.63,0,.08,0,.19.08.27a10.78,10.78,0,0,0,2.78-.5A17.42,17.42,0,0,1,36.27,141C35.85,139.69,35.51,138.43,35,137.17Z"/><circle class="cls-9" cx="64.04" cy="122.36" r="3.75"/><circle class="cls-12" cx="64.04" cy="122.36" r="3.23"/><path class="cls-11" d="M64.78,121.81h.36s0,0,0,0a2.51,2.51,0,0,1,0,.27s0,0,0,0h-.54a.05.05,0,0,0,0,0c-.06.1-.12.19-.17.29v0H65s0,0,0,0a2.51,2.51,0,0,1,0,.27s0,0,0,0h-.78s0,0,0,0a4.94,4.94,0,0,0-.18.76c0,.12,0,.24-.05.36s0,0,0,0h-.6s0,0,0,0a7.12,7.12,0,0,1,.18-.92c0-.07,0-.15.08-.24h-.42s0,0,0,0,0-.19,0-.29,0,0,0,0h.53c.06-.11.13-.22.2-.33h-.67s0,0,0,0,0-.18,0-.26,0,0,0,0h.83a.07.07,0,0,0,.06,0,4.51,4.51,0,0,1,.47-.51l0,0H63s0,0,0,0,.05-.3.07-.45,0,0,0,0h2.23a0,0,0,0,1,0,0c0,.15-.05.3-.07.45s0,0,0,.05a6,6,0,0,0-.48.53Z"/></svg>