<?xml version="1.0" encoding="utf-8"?>
<!-- Generator: Adobe Illustrator 25.3.1, SVG Export Plug-In . SVG Version: 6.00 Build 0)  -->
<svg version="1.1" id="Layer_1" xmlns="http://www.w3.org/2000/svg" xmlns:xlink="http://www.w3.org/1999/xlink" x="0px" y="0px"
	 viewBox="0 0 300 300" style="enable-background:new 0 0 300 300;" xml:space="preserve">
<style type="text/css">
	.st0{display:none;}
	.st1{fill:#45484C;}
	.st2{fill:#D3D3D3;}
	.st3{fill:#FEFEFE;}
	.st4{fill:#0B0808;}
	.st5{fill:#F15A29;}
	.st6{fill:#959595;}
	.st7{fill:#FFFFFF;}
	.st8{fill:#F15A29;stroke:#FFFFFF;stroke-width:0.5;stroke-miterlimit:10;}
</style>
<desc>Created with Fabric.js 4.2.0</desc>
<rect x="-55.3" y="-55.3" class="st0" width="350" height="350"/>
<g id="fd6530b0-8046-4969-8e01-9d0ffaa4aad5" transform="matrix(Infinity NaN NaN Infinity 0 0)">
</g>
<g transform="matrix(0.57 0 0 0.57 175 175)">
	<g vector-effect="non-scaling-stroke">
		<g transform="matrix(1 0 0 1 64.95 123.53)">
			<path vector-effect="non-scaling-stroke" class="st1" d="M-25.1-22.6C-30-18-35-14.2-40.2-11c-6.4,10.9-13.3,28.7-18.3,43.6
				c-3.5,10.2-6,19-7.1,23.4c0,0-0.4,1.7-0.7,2.9c0,0.1,0,0.3-0.1,0.4c6.6-15.5,27-36,46.2-43.1c5-2.8,11.2-4.8,18.6-5.3
				c3.9-0.3,7.4-0.4,10.8-0.3c8.3,0.3,15,2.2,21.5,6.4c-0.8-3.6-1.7-7.4-2.7-11.1C21.2-19.1,12.4-38.7-3.3-48.5
				c-4.8,7.4-10.5,14-16.6,20.6C-21.6-26.1-23.3-24.3-25.1-22.6z"/>
		</g>
		<g transform="matrix(1 0 0 1 1.2 151.93)">
			<path vector-effect="non-scaling-stroke" class="st2" d="M-92.1,2.7c3.8,10.8,6.6,20.3,7.8,24.9c0,0,0.4,2,0.7,3.2h81
				c0-0.1,0.1-0.3,0.1-0.4c0.3-1.3,0.7-2.9,0.7-2.9C-0.6,23.1,2,14.3,5.4,4.1C-32,14.2-65.8,10.2-92.1,2.7z"/>
		</g>
		<g transform="matrix(1 0 0 1 1.3 129.45)">
			<path vector-effect="non-scaling-stroke" class="st3" d="M5.1,26.6c5-15,11.9-32.7,18.3-43.6C-3-1-33.3-1.3-62.9-3.2
				c-15.8-1.1-32.2-5-47.3-12.9c6.3,10.2,12.9,26.9,17.8,41.3C-65.9,32.7-32.1,36.7,5.1,26.6z"/>
		</g>
		<g transform="matrix(1 0 0 1 46.75 146.58)">
			<path vector-effect="non-scaling-stroke" class="st3" d="M-48.3,36.2h29.1C-22.7,19.6-17.9,1.7-2.1-6.9
				C-21.2,0.1-41.6,20.6-48.3,36.2c0-0.1,0.1-0.3,0.1-0.4C-48.2,35.7-48.2,36-48.3,36.2L-48.3,36.2z"/>
		</g>
		<g transform="matrix(1 0 0 1 -62.55 124.18)">
			<path vector-effect="non-scaling-stroke" class="st1" d="M-85,10c7.4,0.6,13.6,2.5,18.6,5.3c19.2,7.1,39.6,27.7,46.2,43.1h0.4
				c-0.3-1.3-0.7-3.2-0.7-3.2c-1.3-4.6-4.1-14.1-7.8-24.9c-5-14.4-11.5-31.1-17.8-41.3c-6.2-3.1-12-6.9-17.8-11.3
				c-2.8-2.2-5.6-4.6-8.3-7.1c-5.2-4.9-10.5-10.9-15.2-17.6c-13.6,10.4-21.5,29-27.7,52c-1,3.9-2,7.7-2.7,11.6
				c6.6-4.6,13.4-6.6,21.8-7C-92.7,9.6-89.1,9.7-85,10z"/>
		</g>
		<g transform="matrix(1 0 0 1 -44.45 146.48)">
			<path vector-effect="non-scaling-stroke" class="st3" d="M-84.7-7c15.8,8.8,20.6,26.6,17.1,43.1h29.1C-45.1,20.7-65.5,0.2-84.7-7
				z"/>
		</g>
		<g transform="matrix(1 0 0 1 1.2 164.43)">
			<path vector-effect="non-scaling-stroke" class="st4" d="M-2.7,18.3L-2.7,18.3h-81h-0.4h-29.1c-0.4,2.2-1.1,4.6-2,6.9H28.5
				c-0.8-2.2-1.4-4.5-2-6.9H-2.7z"/>
		</g>
		<g transform="matrix(1 0 0 1 0.05 84.59)">
			<path vector-effect="non-scaling-stroke" class="st5" d="M49.5-25.7c-7.3,6.7-14.8,12.7-22.9,17.8C3.2,11.4-23.1,14.2-45.1,15.3
				c-24.8,0-46.6-8.4-70.2-23.6c-0.6-0.4-1.3-0.8-1.8-1.3c0,0,0,0,0-0.1c-7.1-4.6-13.8-9.9-20.3-15.9c-8.4-7.8-19.3-17.9-23.9-28.5
				c-0.4-1.1-1.5-3.4-2.9-6c-0.6,12.3,0.7,25,4.1,33.9c2.5,6.7,6.2,13.1,10.4,18.9c4.8,6.7,10.2,12.7,15.2,17.6
				c2.7,2.5,5.5,4.9,8.3,7.1c5.6,4.5,11.6,8.1,17.8,11.3c15.1,7.7,31.3,11.8,47.3,12.9c29.5,2.1,59.9,2.4,86.3-13.8
				c5.2-3.2,10.4-7,15.1-11.6c1.8-1.7,3.5-3.4,5.2-5.2C51.4,4.3,57-2.4,61.9-9.7C69.2-20.8,74.4-33.5,76-50.1
				c0.4-4.3,0.7-8.5,0.7-12.6C68.8-49.4,60.7-36.1,49.5-25.7z"/>
		</g>
		<g transform="matrix(1 0 0 1 0 -50.97)">
			<path vector-effect="non-scaling-stroke" class="st1" d="M93.4-77.4c7.4,2,20,1.8,28.7,5c-15.7-14.8-24.6-36.7-37.8-54.4
				c19.4-30.1,12.7-94.7,0.4-115c-11.2-18.3-17.5-19.2-25.5-1.5c-7.1,15.4-16.8,21.3-26.4,34.7c-8.5,12-21.8,30.9-25.2,47.1
				c-31.9-6.2-62.4-7-95-3.6c-2.9,0.3-6,0.6-9,0.8c-4.2-15.5-16.4-33-24.5-44.3c-9.7-13.4-19.3-19.3-26.4-34.7
				c-8.1-17.5-14.3-16.6-25.5,1.5c-12.5,20.1-19,84.9,0.4,115c-13.1,17.6-22,39.6-37.6,54.3c8.7-3.2,21.3-2.9,28.7-5
				c-9.4,12-17.9,22.5-24.2,34.8c-3.5,6.9-6.4,14.3-8.3,22.8c6.4-2.4,13-5.7,18.9-9c-10.1,19-14.7,61.6,4.5,77.6
				c2-6.6,4.3-11.6,8.8-16.9c1.8,7,1.7,13.6,5.3,20.6c2.2,4.3,8.3,15.5,12,22.9c1.4,2.7,2.5,4.9,2.9,6c4.6,10.6,15.5,20.7,23.9,28.5
				c6.2,6,13,11.3,20,16.1c-11.5-16.2-50.8-83.1-25-119.9c6.3-9,14.8-10.5,20.8-11.3c-26.6-18-34.8-35.3-34.8-51.9
				c-0.1-17.5,7.6-57.9,40.4-58.8c42.2-1.1,58.3,39.7,62,53.3c1.5-5.6,8-13.3,9-21.4v-0.4v0.1c0-0.1,0-0.1,0-0.1v0.4
				c1,8.1,7.4,15.8,9,21.4c5.6-18.2,19.7-57.1,59.7-57.6c1.3,0,2.5,0,3.8,0.1c7,0.7,12.9,3.5,17.8,7.6C61.7-99,67.6-71.3,66.6-58.4
				c-1,16.4-9.2,34.7-34.8,48.7c6,0.8,15,7.7,20.7,15.8c27.4,39.2-13.6,104.8-25,120.9c-0.3,0.3-0.6,0.4-0.8,0.7
				c8.1-5,15.7-10.9,22.9-17.8c11.2-10.5,19.2-23.8,27-36.9c1.7-2.9,3.4-5.7,5-8.5c4.2-6.9,5.2-15.2,9.7-21.8
				C95.3,46,95,52.8,95,57.9c5.2-7.8,10.2-17.8,13.3-27.3c3.1-9.8,8.3-19.3,8.3-29.8c0-6.4-3.2-26.2-9.5-29.7
				c5.7,3.4,12.5,6.6,18.9,9c-1.8-8.5-4.8-15.9-8.3-22.8C111.3-54.9,102.8-65.5,93.4-77.4z M-167.5-224.4c0.6,0,1.1-0.1,1.7-0.1
				c14.4,0.1,27.7,29.5,36.2,39c1.8,2.1,4.3,4.9,6.9,8.1c6,7.7,19.6,23.9,15.2,34.6c-3.5,8.5-15.2,9.1-22.8,11.6
				c-6,2-8.7,7.1-14.1,9.2c-14.1,5.6-19.4-6.2-22.9-17.1C-175.7-165.4-174.2-197.7-167.5-224.4z M19.2-144.4
				c-0.1-12.2,8.4-23.8,15.7-32.9c2.5-3.2,5-6,6.9-8.1c8.5-9.7,21.7-39,36.2-39c0.6,0,1.1,0.1,1.7,0.1c6.7,26.6,8.3,58.9,0,85.3
				c-3.4,10.6-7.4,23.1-21.3,17.3c-4.5-1.8-8.1-5.9-12.6-7.6C35.9-132.5,19.4-130.7,19.2-144.4z"/>
		</g>
		<g transform="matrix(1 0 0 1 -68.71 -128.35)">
			<path vector-effect="non-scaling-stroke" class="st6" d="M-75.8-44.5c5.5-2.2,8.1-7.4,14.1-9.2c7.6-2.4,19.3-2.9,22.8-11.6
				c4.3-10.5-9.2-26.9-15.2-34.6c-2.5-3.2-5-6-6.9-8.1c-8.5-9.7-21.7-39-36.2-39c-0.6,0-1.1,0.1-1.7,0.1c-6.7,26.6-8.3,58.9,0,85.3
				C-95.4-50.7-89.9-38.9-75.8-44.5z"/>
		</g>
		<g transform="matrix(1 0 0 1 68.66 -128.25)">
			<path vector-effect="non-scaling-stroke" class="st6" d="M-10.3-44.3c13.8,5.7,17.9-6.7,21.3-17.3c8.3-26.4,6.7-58.8,0-85.3
				c-0.6,0-1.1-0.1-1.7-0.1c-14.4,0.1-27.7,29.5-36.2,39c-1.8,2.1-4.3,4.9-6.9,8.1c-7.3,9.1-15.8,20.7-15.7,32.9
				c0.3,13.7,16.8,11.8,26.4,15.2C-18.4-50.2-14.8-46.2-10.3-44.3z"/>
		</g>
		<g transform="matrix(1 0 0 1 -0.57 5.88)">
			<path vector-effect="non-scaling-stroke" class="st3" d="M-114.7,70.4C-91.1,85.6-69.4,94-44.5,94c22-1.1,48.3-3.9,71.6-23.2
				c0.3-0.3,0.6-0.4,0.8-0.7C39.5,54,80.4-11.6,53-50.7C47.3-59,38.3-65.9,32.3-66.6c25.6-14,33.9-32.3,35-48.7
				c0.8-12.9-5-40.6-21.3-54.1c-4.9-4.1-10.9-6.9-17.8-7.6c-1.3-0.1-2.5-0.1-3.8-0.1c-40,0.6-54.1,39.4-59.7,57.6
				c-1.5-5.6-8-13.3-9-21.4v-0.4v0.1c0-0.1,0-0.1,0-0.1v0.4c-1,8.1-7.4,15.8-9,21.4c-3.6-13.6-19.6-54.4-62-53.3
				c-32.7,0.8-40.4,41.4-40.4,58.8c0.1,16.6,8.3,33.9,34.8,51.9c-6,0.8-14.5,2.4-20.8,11.3C-167.3-14-128.1,52.9-116.7,69.1
				c0,0,0,0,0,0.1C-116,69.6-115.3,70-114.7,70.4z M14.7,44.2C-8,68.6-22.5,63.3-29.7,61.6c10.8-6.4,15.2-7.4,31.2-23.2
				c7-6.9,21.1-27.1,13.1-47C36.4-3,25,33,14.7,44.2z M7.3-141.8c9.5,0,17.2,14.4,17.2,32.2S16.8-77.5,7.3-77.5S-9.9-91.9-9.9-109.6
				S-2.1-141.8,7.3-141.8z M-60.8-10.9c14.7-8.5,64.5-0.4,44.3,24.6C-34.3,35.8-97.5,10.2-60.8-10.9z M-98.1-141.8
				c9.5,0,17.2,14.4,17.2,32.2s-7.7,32.2-17.2,32.2s-17.2-14.4-17.2-32.2S-107.6-141.8-98.1-141.8z"/>
		</g>
		<g transform="matrix(1 0 0 1 1 38.44)">
			<path vector-effect="non-scaling-stroke" class="st4" d="M-18.1-18.8C2.2-44-47.6-52-62.4-43.4C-99.1-22.3-35.8,3.3-18.1-18.8z
				 M-70-31.1c0.4-3.6,6.7-8.1,13.8-9.9s12.6-0.3,12,3.5c-0.4,3.6-6.7,8.1-13.8,9.9C-65.1-26-70.4-27.5-70-31.1z"/>
		</g>
		<g transform="matrix(1 0 0 1 36.15 -42.82)">
			<path vector-effect="non-scaling-stroke" class="st4" d="M-29.4-28.8c9.5,0,17.2-14.4,17.2-32.2s-7.7-32.2-17.2-32.2
				s-17.2,14.4-17.2,32.2S-38.8-28.8-29.4-28.8z M-40.8-66.4c-3.2-2.2-2.5-8.7,1.3-14.3c3.9-5.6,9.5-8.3,12.7-6
				c3.2,2.2,2.5,8.7-1.3,14.3C-31.8-66.8-37.6-64.2-40.8-66.4z"/>
		</g>
		<g transform="matrix(1 0 0 1 -39.15 -42.82)">
			<path vector-effect="non-scaling-stroke" class="st4" d="M-59.5-28.8c9.5,0,17.2-14.4,17.2-32.2S-50-93.1-59.5-93.1
				s-17.2,14.4-17.2,32.2S-69-28.8-59.5-28.8z M-70.5-66.4c-3.2-2.2-2.5-8.7,1.3-14.3c3.9-5.6,9.5-8.3,12.7-6
				c3.2,2.2,2.5,8.7-1.3,14.3C-61.6-66.8-67.3-64.2-70.5-66.4z"/>
		</g>
		<g transform="matrix(1 0 0 1 30.01 55.08)">
			<path vector-effect="non-scaling-stroke" class="st4" d="M-16-57.8c8,19.7-6.2,40.1-13.1,47C-45,5-49.5,6-60.2,12.4
				c7.3,1.7,21.7,7,44.3-17.5C-5.5-16.2,5.8-52.2-16-57.8z"/>
		</g>
		<g transform="matrix(1 0 0 1 -42.05 -53.97)">
			<path vector-effect="non-scaling-stroke" class="st7" d="M-54.9-61.3c3.9-5.6,4.5-11.9,1.3-14.3c-3.2-2.2-8.8,0.4-12.7,6
				s-4.5,11.9-1.3,14.3C-64.4-53-58.7-55.7-54.9-61.3z"/>
		</g>
		<g transform="matrix(1 0 0 1 33.05 -53.97)">
			<path vector-effect="non-scaling-stroke" class="st7" d="M-24.9-61.3c3.9-5.6,4.5-11.9,1.3-14.3c-3.2-2.2-8.8,0.4-12.7,6
				s-4.5,11.9-1.3,14.3C-34.5-53-28.9-55.7-24.9-61.3z"/>
		</g>
		<g transform="matrix(1 0 0 1 -8.61 34.2)">
			<path vector-effect="non-scaling-stroke" class="st7" d="M-48.2-23.5c7.1-1.8,13.3-6.3,13.8-9.9c0.4-3.6-4.9-5.2-12-3.5
				s-13.3,6.3-13.8,9.9S-55.5-21.7-48.2-23.5z"/>
		</g>
		<g transform="matrix(1 0 0 1 83.13 157.39)">
			<path vector-effect="non-scaling-stroke" class="st7" d="M-19.9-23.2c-7.4,0.6-13.6,2.5-18.6,5.3C-54.3-9.1-59.1,8.7-55.6,25.2
				c0.4,2.2,1.1,4.6,2,6.9c4.3,12,13,22.5,24.9,27.1c0.6,0.1,1.1,0.4,1.7,0.6c1.4-2.9,3.4-5.3,4.3-8.5c1.5-4.6,2.9-9.4,4.6-14
				c0.7-1.8,1.3-3.5,3.1-4.6c4.6,8.8,1.1,19.2-1.5,28c-0.1,0.3-0.1,0.7-0.3,1c5,0.1,10.5-0.6,16.2-2.5c0-0.1,0.1-0.3,0.1-0.4
				c1.4-3.6,3.8-6.3,5-10.1c1.5-4.6,2.9-9.4,4.6-14c0.7-1.8,1.3-3.5,3.1-4.6c3.8,7.1,2.2,15.2,0,22.8c2-1.1,3.8-2.4,5.7-3.9
				c23.8-17.3,21.4-40,2.5-59.2c-2.8-2.8-5.5-5-8.3-7C5.8-21.7-1-23.5-9.3-23.8C-12.5-23.6-16-23.5-19.9-23.2z"/>
		</g>
		<g transform="matrix(1 0 0 1 95.77 175.78)">
			<path vector-effect="non-scaling-stroke" class="st1" d="M-0.4,11.7c-1.8,1.1-2.4,2.8-3.1,4.6c-1.8,4.6-3.1,9.4-4.6,14
				c-1.3,3.8-3.6,6.4-5,10.1c0,0.1-0.1,0.3-0.1,0.4c4.1-1.4,8.4-3.5,12.9-6.2C1.9,27.1,3.4,19-0.4,11.7z"/>
		</g>
		<g transform="matrix(1 0 0 1 76.65 177.63)">
			<path vector-effect="non-scaling-stroke" class="st1" d="M-8.4,12.5c-1.8,1.1-2.4,2.8-3.1,4.6c-1.8,4.6-3.1,9.4-4.6,14
				c-1,3.2-2.9,5.6-4.3,8.5c3.2,1.1,6.6,1.7,10.2,1.8c0.1-0.4,0.1-0.7,0.3-1C-7.3,31.5-3.8,21.3-8.4,12.5z"/>
		</g>
		<g transform="matrix(1 0 0 1 -80.91 157.58)">
			<path vector-effect="non-scaling-stroke" class="st7" d="M-48.2-18.1c-5-2.8-11.2-4.8-18.6-5.3c-4.1-0.3-7.7-0.4-11.2-0.3
				c-8.3,0.4-15.1,2.4-21.8,7c-2.5,1.8-5,3.9-7.6,6.4c-18.9,19.2-21.3,41.8,2.5,59.2c2,1.4,3.9,2.7,5.7,3.9
				c-2.2-7.6-3.8-15.7,0-22.8c1.8,1.1,2.4,2.8,3.1,4.6c1.8,4.6,3.1,9.4,4.6,14c1.3,3.8,3.6,6.4,5,10.1c0,0.1,0.1,0.3,0.1,0.4
				c5.7,2,11.2,2.8,16.2,2.5c-0.1-0.4-0.1-0.7-0.3-1c-2.7-8.8-6.2-19.2-1.5-28c1.8,1.1,2.4,2.8,3.1,4.6c1.8,4.6,3.1,9.4,4.6,14
				c1,3.2,2.9,5.6,4.3,8.5c0.6-0.1,1.1-0.4,1.7-0.6c11.9-4.6,20.6-15.1,24.9-27.1c0.8-2.2,1.4-4.5,2-6.9
				C-27.6,8.5-32.4-9.3-48.2-18.1z"/>
		</g>
		<g transform="matrix(1 0 0 1 -93.37 175.83)">
			<path vector-effect="non-scaling-stroke" class="st1" d="M-78.7,30.4c-1.5-4.6-2.9-9.4-4.6-14c-0.7-1.8-1.3-3.5-3.1-4.6
				c-3.8,7.1-2.2,15.2,0,22.8c4.5,2.7,8.7,4.8,12.9,6.2c0-0.1-0.1-0.3-0.1-0.4C-75.1,36.8-77.6,34-78.7,30.4z"/>
		</g>
		<g transform="matrix(1 0 0 1 -74.25 177.63)">
			<path vector-effect="non-scaling-stroke" class="st1" d="M-75.3,17.1c-0.7-1.8-1.3-3.5-3.1-4.6c-4.6,8.8-1.1,19.2,1.5,28
				c0.1,0.3,0.1,0.7,0.3,1c3.6-0.1,7-0.8,10.2-1.8c-1.4-2.9-3.4-5.3-4.3-8.5C-72.2,26.4-73.5,21.8-75.3,17.1z"/>
		</g>
	</g>
</g>
<circle class="st5" cx="150.5" cy="255" r="7.8"/>
<circle class="st8" cx="150.5" cy="255" r="6.8"/>
<g>
	<path class="st7" d="M152,253.9c0.3,0,0.5,0,0.8,0c0.1,0,0.1,0,0.1,0.1c0,0.2-0.1,0.4-0.1,0.6c0,0,0,0.1-0.1,0.1
		c-0.4,0-0.7,0-1.1,0c-0.1,0-0.1,0-0.1,0.1c-0.1,0.2-0.2,0.4-0.4,0.6c0,0,0,0,0,0c0,0,0.1,0,0.1,0c0.5,0,0.9,0,1.4,0
		c0.1,0,0.1,0,0.1,0.1c0,0.2-0.1,0.4-0.1,0.6c0,0.1,0,0.1-0.1,0.1c-0.5,0-1.1,0-1.6,0c0,0-0.1,0-0.1,0.1c-0.2,0.5-0.3,1-0.4,1.6
		c0,0.3-0.1,0.5-0.1,0.8c0,0,0,0.1-0.1,0.1c-0.4,0-0.8,0-1.3,0c0,0-0.1,0,0,0c0.1-0.6,0.2-1.3,0.4-1.9c0.1-0.2,0.1-0.3,0.2-0.5
		c-0.1,0-0.2,0-0.3,0c-0.2,0-0.4,0-0.6,0c-0.1,0-0.1,0-0.1-0.1c0-0.2,0.1-0.4,0.1-0.6c0,0,0,0,0.1,0c0.2,0,0.3,0,0.5,0
		c0.2,0,0.4,0,0.6,0c0,0,0.1,0,0.1,0c0.1-0.2,0.3-0.4,0.4-0.7c0,0-0.1,0-0.1,0c-0.4,0-0.9,0-1.3,0c-0.1,0-0.1,0-0.1-0.1
		c0-0.2,0.1-0.4,0.1-0.6c0-0.1,0-0.1,0.1-0.1c0.6,0,1.2,0,1.7,0c0,0,0.1,0,0.1-0.1c0.3-0.4,0.6-0.7,1-1.1c0,0,0,0,0.1,0c0,0,0,0,0,0
		c0,0,0,0-0.1,0c-1.1,0-2.2,0-3.3,0c-0.1,0-0.1,0-0.1-0.1c0.1-0.3,0.1-0.6,0.1-0.9c0-0.1,0-0.1,0.1-0.1c1.1,0,2.2,0,3.3,0
		c0.5,0,0.9,0,1.4,0c0.1,0,0.1,0,0.1,0.1c0,0.3-0.1,0.6-0.1,0.9c0,0,0,0.1-0.1,0.1C152.7,253.1,152.3,253.5,152,253.9
		C152,253.9,152,253.9,152,253.9z"/>
</g>
</svg>
