<svg id="Layer_1" data-name="Layer 1" xmlns="http://www.w3.org/2000/svg" viewBox="0 0 350 350"><defs><style>.cls-1{fill:#45484c;}.cls-2{fill:#d3d3d3;}.cls-3{fill:#fefefe;}.cls-4{fill:#0b0808;}.cls-5,.cls-8{fill:#f15a29;}.cls-6{fill:#959595;}.cls-7{fill:#fff;}.cls-8{stroke:#fff;stroke-miterlimit:10;stroke-width:0.5px;}</style></defs><path class="cls-1" d="M230.34,270.73a61.66,61.66,0,0,1-10,7.68c-4.25,7.22-8.79,19-12.12,28.87-2.31,6.75-4,12.58-4.71,15.45,0,0-.28,1.11-.47,1.94a.35.35,0,0,1-.09.28c4.35-10.27,17.86-23.78,30.53-28.5a29.65,29.65,0,0,1,12.31-3.51,62.58,62.58,0,0,1,7.12-.19A26.86,26.86,0,0,1,267.16,297c-.56-2.41-1.11-4.9-1.76-7.31-4.44-16.65-10.27-29.6-20.63-36.08a96.38,96.38,0,0,1-11,13.6C232.65,268.42,231.54,269.62,230.34,270.73Z"/><path class="cls-2" d="M143.83,306.26c2.5,7.12,4.35,13.41,5.18,16.47,0,0,.28,1.29.47,2.13H203c0-.1.1-.19.1-.28.18-.83.46-1.94.46-1.94.74-2.87,2.5-8.7,4.72-15.45A119.29,119.29,0,0,1,143.83,306.26Z"/><path class="cls-3" d="M208.22,307.19c3.33-9.89,7.87-21.64,12.12-28.86-17.48,10.64-37.56,10.45-57.08,9.16A80.28,80.28,0,0,1,132,279c4.17,6.75,8.51,17.76,11.75,27.29C161.23,311.27,183.62,313.86,208.22,307.19Z"/><path class="cls-3" d="M203,324.86h19.24c-2.31-10.92.84-22.76,11.29-28.5C220.9,301,207.39,314.59,203,324.86c0-.1.09-.19.09-.28a.48.48,0,0,1-.09.28Z"/><path class="cls-1" d="M106.37,292.75a29.64,29.64,0,0,1,12.3,3.52c12.67,4.72,26.18,18.32,30.53,28.49h.28c-.19-.83-.47-2.12-.47-2.12-.83-3.06-2.68-9.35-5.18-16.47-3.33-9.53-7.58-20.54-11.75-27.29a70,70,0,0,1-11.74-7.5c-1.86-1.48-3.71-3.05-5.46-4.72A79,79,0,0,1,104.79,255c-9,6.84-14.24,19.15-18.32,34.41-.64,2.59-1.29,5.09-1.75,7.68a26,26,0,0,1,14.43-4.62C101.28,292.48,103.68,292.57,106.37,292.75Z"/><path class="cls-3" d="M118.58,296.27c10.45,5.83,13.6,17.58,11.28,28.49h19.25C144.76,314.59,131.25,301,118.58,296.27Z"/><path class="cls-4" d="M203,324.86H129.86a27.51,27.51,0,0,1-1.29,4.53h95a37.43,37.43,0,0,1-1.29-4.53Z"/><path class="cls-5" d="M236.72,243a101.29,101.29,0,0,1-15.17,11.75c-15.45,12.77-32.85,14.62-47.37,15.36-16.38,0-30.81-5.55-46.44-15.64-.37-.28-.84-.55-1.21-.83v-.09A96.5,96.5,0,0,1,113.12,243c-5.55-5.18-12.77-11.84-15.82-18.87-.28-.74-1-2.22-1.94-4-.37,8.14.46,16.56,2.68,22.39A52.69,52.69,0,0,0,104.89,255,84.62,84.62,0,0,0,115,266.66c1.76,1.67,3.61,3.24,5.46,4.72a72.24,72.24,0,0,0,11.75,7.5,81.56,81.56,0,0,0,31.27,8.51C183,288.77,203,289,220.53,278.23a59.35,59.35,0,0,0,10-7.68c1.2-1.11,2.31-2.22,3.42-3.42a109.38,109.38,0,0,0,11-13.6,57.43,57.43,0,0,0,9.35-26.74c.27-2.87.46-5.64.46-8.33C249.49,227.25,244.12,236,236.72,243Z"/><path class="cls-1" d="M265.77,119.1c4.9,1.3,13.23,1.21,19,3.33-10.36-9.8-16.28-24.24-25-36,12.85-19.9,8.41-62.64.27-76-7.4-12.12-11.56-12.68-16.84-1-4.71,10.18-11.1,14.06-17.48,22.94-5.64,8-14.43,20.45-16.65,31.18a210.19,210.19,0,0,0-62.82-2.4l-5.92.55c-2.78-10.27-10.83-21.83-16.19-29.33-6.39-8.88-12.77-12.76-17.49-22.94-5.36-11.56-9.43-11-16.83,1-8.24,13.32-12.59,56.15.27,76.05C81.39,98.1,75.56,112.63,65.2,122.34c5.73-2.13,14.06-1.94,19-3.33-6.2,8-11.84,14.9-16,23a60,60,0,0,0-5.46,15.08,99.29,99.29,0,0,0,12.49-5.92c-6.66,12.58-9.72,40.7,3,51.34A28.74,28.74,0,0,1,84,191.36c1.2,4.62,1.11,9,3.51,13.6,1.48,2.86,5.46,10.27,8,15.17.92,1.76,1.66,3.24,1.94,4,3,7,10.27,13.69,15.82,18.87a97.09,97.09,0,0,0,13.23,10.64c-7.58-10.73-33.58-55-16.56-79.29,4.16-5.92,9.81-6.93,13.79-7.49-17.58-11.93-23-23.31-23-34.32-.09-11.57,5-38.3,26.74-38.86,27.94-.74,38.58,26.28,41,35.25,1-3.7,5.27-8.79,5.92-14.16v0c.65,5.37,4.9,10.46,5.92,14.16,3.7-12,13.05-37.75,39.51-38.12a20.74,20.74,0,0,1,2.49.1,21.44,21.44,0,0,1,11.75,5c10.83,9,14.71,27.29,14.07,35.8-.65,10.83-6.11,22.95-23,32.2,4,.56,9.9,5.09,13.69,10.45,18.13,25.91-9,69.3-16.56,79.94-.18.18-.37.27-.55.46A95.7,95.7,0,0,0,236.72,243c7.4-6.94,12.67-15.73,17.85-24.42,1.11-1.95,2.22-3.8,3.33-5.65,2.78-4.53,3.43-10.08,6.39-14.43,2.68,2.22,2.5,6.75,2.5,10.08a77.85,77.85,0,0,0,8.79-18c2-6.47,5.45-12.76,5.45-19.7,0-4.26-2.12-17.3-6.29-19.61a82.73,82.73,0,0,0,12.49,5.92,60,60,0,0,0-5.46-15.08C277.61,134,272,127,265.77,119.1ZM93.23,21.87c.37,0,.74-.09,1.11-.09,9.53.09,18.32,19.52,24,25.81,1.2,1.39,2.87,3.24,4.53,5.36,4,5.09,13,15.82,10.09,22.86-2.32,5.64-10.09,6-15.08,7.67-4,1.3-5.74,4.72-9.35,6.11-9.34,3.7-12.86-4.07-15.17-11.29C87.77,60.91,88.79,39.54,93.23,21.87ZM216.64,74.79c-.09-8.05,5.55-15.73,10.36-21.74,1.67-2.13,3.34-4,4.54-5.37,5.64-6.38,14.34-25.81,24-25.81.37,0,.74.09,1.11.09,4.44,17.58,5.46,38.95,0,56.44-2.22,7-4.9,15.26-14.06,11.47-3-1.2-5.37-3.89-8.33-5C227.74,82.65,216.83,83.85,216.64,74.79Z"/><path class="cls-6" d="M108.4,89.68c3.61-1.48,5.37-4.9,9.34-6.1,5-1.58,12.77-2,15.08-7.68,2.87-6.94-6.1-17.76-10.08-22.85-1.66-2.13-3.33-4-4.53-5.37-5.65-6.38-14.34-25.81-24-25.81-.37,0-.74.09-1.11.09-4.44,17.58-5.46,38.95,0,56.44C95.45,85.61,99.06,93.38,108.4,89.68Z"/><path class="cls-6" d="M242.55,89.87c9.16,3.79,11.84-4.44,14.06-11.47,5.46-17.49,4.44-38.86,0-56.44-.37,0-.74-.09-1.11-.09-9.53.09-18.32,19.52-24,25.81-1.2,1.39-2.87,3.24-4.54,5.37-4.81,6-10.45,13.69-10.36,21.74.19,9.06,11.1,7.77,17.49,10.08C237.18,86,239.59,88.67,242.55,89.87Z"/><path class="cls-3" d="M127.74,254.45c15.63,10.09,30,15.64,46.44,15.64,14.52-.74,31.92-2.59,47.37-15.36.18-.19.37-.28.55-.46,7.59-10.64,34.69-54,16.56-79.94-3.79-5.45-9.71-10-13.69-10.45,16.93-9.25,22.39-21.37,23.13-32.2.55-8.51-3.33-26.82-14.06-35.8a21.79,21.79,0,0,0-11.75-5,21,21,0,0,0-2.5-.1c-26.46.37-35.8,26.09-39.51,38.12-1-3.7-5.27-8.79-5.92-14.16v0c-.64,5.37-4.9,10.46-5.92,14.16-2.4-9-12.95-36-41-35.25-21.65.56-26.74,27.39-26.74,38.86.09,11,5.46,22.39,23,34.32-4,.56-9.62,1.57-13.79,7.49-17,24.34,8.89,68.56,16.47,79.29v.09A6.1,6.1,0,0,1,127.74,254.45Zm85.57-17.3c-15,16.1-24.61,12.58-29.32,11.47,7.12-4.25,10.08-4.9,20.63-15.35,4.62-4.54,14-18,8.69-31.09C227.65,205.88,220.16,229.75,213.31,237.15Zm-4.9-123c6.29,0,11.38,9.53,11.38,21.28s-5.09,21.27-11.38,21.27S197,147.13,197,135.39,202.21,114.11,208.41,114.11ZM163.35,200.7c9.72-5.64,42.65-.28,29.33,16.28C180.93,231.6,139.12,214.67,163.35,200.7Zm-24.6-86.59c6.29,0,11.38,9.53,11.38,21.28s-5.09,21.27-11.38,21.27-11.38-9.53-11.38-21.27S132.45,114.11,138.75,114.11Z"/><path class="cls-4" d="M192.68,217c13.42-16.65-19.52-21.92-29.33-16.28C139.12,214.67,180.93,231.6,192.68,217Zm-34.32-8.14c.28-2.4,4.44-5.36,9.16-6.57s8.32-.18,7.95,2.32-4.44,5.36-9.15,6.57S158.08,211.25,158.36,208.84Z"/><path class="cls-4" d="M208.41,156.66c6.29,0,11.38-9.53,11.38-21.27s-5.09-21.28-11.38-21.28S197,123.64,197,135.39,202.21,156.66,208.41,156.66Zm-7.49-24.88c-2.13-1.48-1.67-5.74.83-9.44s6.29-5.46,8.42-4,1.66,5.74-.84,9.44S203,133.26,200.92,131.78Z"/><path class="cls-4" d="M138.75,156.66c6.29,0,11.38-9.53,11.38-21.27s-5.09-21.28-11.38-21.28-11.38,9.53-11.38,21.28S132.45,156.66,138.75,156.66Zm-7.31-24.88c-2.13-1.48-1.67-5.74.83-9.44s6.29-5.46,8.42-4,1.66,5.74-.83,9.44S133.56,133.26,131.44,131.78Z"/><path class="cls-4" d="M213.22,202.18c5.27,13-4.07,26.55-8.7,31.09-10.45,10.45-13.41,11.1-20.53,15.35,4.81,1.11,14.34,4.63,29.32-11.56C220.16,229.75,227.65,205.88,213.22,202.18Z"/><path class="cls-7" d="M139.86,127.8c2.59-3.7,3-7.86.83-9.44s-5.83.28-8.42,4-3,7.86-.83,9.44S137.36,131.5,139.86,127.8Z"/><path class="cls-7" d="M209.33,127.8c2.59-3.7,3-7.86.84-9.44s-5.83.28-8.42,4-3,7.86-.83,9.44S206.74,131.5,209.33,127.8Z"/><path class="cls-7" d="M166.41,211.06c4.72-1.2,8.79-4.16,9.16-6.57s-3.24-3.42-8-2.31-8.79,4.16-9.16,6.57S161.6,212.27,166.41,211.06Z"/><path class="cls-7" d="M245.79,292.75a29.65,29.65,0,0,0-12.31,3.52c-10.45,5.83-13.6,17.58-11.29,28.49a27.66,27.66,0,0,0,1.3,4.54c2.87,7.95,8.6,14.89,16.47,17.94.37.1.74.28,1.11.37.92-1.94,2.22-3.51,2.87-5.64,1-3.05,1.94-6.2,3.05-9.25a5.3,5.3,0,0,1,2-3.05c3.06,5.82.74,12.67-1,18.5-.1.18-.1.46-.19.65a30.35,30.35,0,0,0,10.73-1.67c0-.09.09-.18.09-.28.93-2.4,2.5-4.16,3.34-6.66,1-3,1.94-6.2,3-9.25a5.3,5.3,0,0,1,2-3c2.5,4.72,1.48,10.08,0,15.08a30.49,30.49,0,0,0,3.8-2.59c15.72-11.47,14.15-26.46,1.66-39.14a39.91,39.91,0,0,0-5.46-4.62,25.83,25.83,0,0,0-14.24-4.26C250.69,292.48,248.38,292.57,245.79,292.75Z"/><path class="cls-1" d="M267.06,328a5.3,5.3,0,0,0-2,3.05c-1.2,3.06-2,6.2-3,9.26-.84,2.49-2.41,4.25-3.34,6.66,0,.09-.09.18-.09.27a46.27,46.27,0,0,0,8.51-4.07C268.54,338.18,269.56,332.81,267.06,328Z"/><path class="cls-1" d="M249.12,329.76a5.27,5.27,0,0,0-2,3.05c-1.2,3.06-2,6.2-3.05,9.25-.65,2.13-1.95,3.7-2.87,5.65a22.92,22.92,0,0,0,6.75,1.2c.1-.28.1-.46.19-.65C249.86,342.34,252.17,335.59,249.12,329.76Z"/><path class="cls-7" d="M118.58,296.27a29.65,29.65,0,0,0-12.31-3.52,70,70,0,0,0-7.4-.18,26.5,26.5,0,0,0-14.43,4.62,41.09,41.09,0,0,0-5,4.26C67,314.12,65.38,329.11,81.11,340.58c1.29.93,2.59,1.76,3.79,2.59-1.48-5-2.5-10.36,0-15.08a5.36,5.36,0,0,1,2,3.06c1.2,3.05,2,6.2,3,9.25.83,2.5,2.41,4.25,3.33,6.66,0,.09.09.18.09.28A28.47,28.47,0,0,0,104.15,349c-.1-.28-.1-.46-.19-.65-1.76-5.82-4.07-12.67-1-18.5a5.27,5.27,0,0,1,2,3c1.2,3.06,2,6.2,3,9.26.65,2.12,1.94,3.7,2.87,5.64.37-.09.74-.28,1.11-.37,7.86-3.05,13.6-10,16.47-17.95a37.43,37.43,0,0,0,1.29-4.53C132.18,313.85,129,302.1,118.58,296.27Z"/><path class="cls-1" d="M90.18,340.4c-1-3-2-6.2-3.06-9.25a5.29,5.29,0,0,0-2-3.06c-2.5,4.72-1.48,10.09,0,15.08a43.66,43.66,0,0,0,8.51,4.07c0-.09-.09-.18-.09-.27C92.58,344.65,90.92,342.8,90.18,340.4Z"/><path class="cls-1" d="M105.07,332.81a5.27,5.27,0,0,0-2-3.05c-3,5.83-.74,12.67,1,18.5.1.19.1.46.19.65a26.71,26.71,0,0,0,6.75-1.2c-.92-1.95-2.22-3.52-2.87-5.65C107.11,338.92,106.27,335.87,105.07,332.81Z"/><circle class="cls-5" cx="175.5" cy="296.86" r="9.1"/><circle class="cls-8" cx="175.5" cy="296.86" r="7.84"/><path class="cls-7" d="M177.29,295.52h.89c.07,0,.09,0,.08.08s-.07.43-.1.65c0,.06,0,.07-.09.07h-1.3a.12.12,0,0,0-.12.07,6.1,6.1,0,0,0-.41.7l0,.05h1.72c.07,0,.1,0,.09.09a5,5,0,0,0-.1.66c0,.07,0,.08-.1.08h-1.89a.09.09,0,0,0-.1.07,9.57,9.57,0,0,0-.44,1.83c0,.29-.09.58-.13.88,0,.05,0,.06-.07.06h-1.46s-.07,0-.06,0a16.56,16.56,0,0,1,.42-2.21c.06-.19.12-.38.2-.58h-1c-.06,0-.07,0-.06-.07,0-.24.07-.47.11-.71,0-.05,0-.05.06-.05h1.21s.07,0,.09,0a8.21,8.21,0,0,1,.48-.78h-1.64c-.06,0-.08,0-.07-.08,0-.22.07-.43.1-.64s0-.08.1-.08h2a.12.12,0,0,0,.12-.06,16.89,16.89,0,0,1,1.14-1.25l.07,0,0,0h-3.91c-.06,0-.09,0-.08-.08.06-.36.11-.73.16-1.08,0-.07,0-.07.09-.07h5.39c.06,0,.08,0,.07.07-.06.37-.11.73-.16,1.09a.15.15,0,0,1-.06.11c-.41.41-.81.84-1.18,1.29Z"/></svg>