<svg id="Layer_1" data-name="Layer 1" xmlns="http://www.w3.org/2000/svg" viewBox="0 0 234.99 234.99"><defs><style>.cls-1,.cls-6,.cls-9{fill:#f15a29;}.cls-1{fill-opacity:0;}.cls-2{fill:#45484c;}.cls-3{fill:#d3d3d3;}.cls-4{fill:#fefefe;}.cls-5{fill:#0b0808;}.cls-7{fill:#959595;}.cls-8{fill:#fff;}.cls-9{stroke:#fff;stroke-miterlimit:10;stroke-width:0.5px;}</style></defs><g id="dbe10697-8c2c-449f-9595-e1af2e70978d"><rect class="cls-1" x="-57.16" y="-57.77" width="350" height="350"/></g><path class="cls-2" d="M151.51,176.38a38.3,38.3,0,0,1-6.15,4.73c-2.62,4.45-5.42,11.69-7.47,17.79-1.42,4.16-2.45,7.75-2.91,9.52,0,0-.17.68-.28,1.19a.19.19,0,0,1-.06.17c2.68-6.32,11-14.64,18.81-17.55a18.29,18.29,0,0,1,7.58-2.17,39.12,39.12,0,0,1,4.39-.11,16.52,16.52,0,0,1,8.78,2.62c-.34-1.48-.68-3-1.08-4.5-2.74-10.26-6.33-18.24-12.71-22.23a59.15,59.15,0,0,1-6.79,8.38C152.94,175,152.25,175.7,151.51,176.38Z"/><path class="cls-3" d="M98.22,198.27c1.54,4.39,2.68,8.27,3.19,10.15,0,0,.17.79.29,1.31h33c0-.06.06-.12.06-.17.11-.52.28-1.2.28-1.2.46-1.77,1.54-5.36,2.91-9.52A73.52,73.52,0,0,1,98.22,198.27Z"/><path class="cls-4" d="M137.89,198.85c2.05-6.1,4.85-13.34,7.47-17.79-10.78,6.56-23.14,6.44-35.17,5.65a49.6,49.6,0,0,1-19.27-5.25c2.57,4.16,5.25,10.95,7.24,16.82A73.66,73.66,0,0,0,137.89,198.85Z"/><path class="cls-4" d="M134.64,209.73H146.5c-1.43-6.73.51-14,6.95-17.56-7.75,2.85-16.07,11.23-18.81,17.56,0-.06.06-.12.06-.17a.27.27,0,0,1-.06.17Z"/><path class="cls-2" d="M75.13,190a18.29,18.29,0,0,1,7.58,2.16c7.81,2.91,16.14,11.29,18.81,17.56h.18c-.12-.51-.29-1.31-.29-1.31-.51-1.88-1.65-5.76-3.19-10.15-2-5.87-4.68-12.65-7.24-16.81a43.09,43.09,0,0,1-7.24-4.62c-1.14-.91-2.28-1.88-3.36-2.91a48.6,48.6,0,0,1-6.22-7.18c-5.52,4.22-8.77,11.8-11.28,21.21-.4,1.59-.8,3.13-1.08,4.73a16,16,0,0,1,8.89-2.85C72,189.78,73.48,189.83,75.13,190Z"/><path class="cls-4" d="M82.66,192.11c6.44,3.6,8.38,10.83,7,17.56h11.86C98.79,203.4,90.47,195,82.66,192.11Z"/><path class="cls-5" d="M134.64,209.73h-45a16.26,16.26,0,0,1-.8,2.79h58.54a23,23,0,0,1-.8-2.79Z"/><path class="cls-6" d="M155.45,159.28a62.48,62.48,0,0,1-9.35,7.24c-9.52,7.87-20.24,9-29.19,9.46-10.08,0-19-3.42-28.61-9.63-.23-.17-.51-.34-.74-.51v-.06a59.48,59.48,0,0,1-8.27-6.5c-3.42-3.19-7.86-7.29-9.74-11.63-.17-.45-.63-1.36-1.2-2.45-.23,5,.29,10.21,1.65,13.8a32.67,32.67,0,0,0,4.22,7.69,52.38,52.38,0,0,0,6.21,7.18c1.09,1,2.23,2,3.37,2.91A43.85,43.85,0,0,0,91,181.4a50.08,50.08,0,0,0,19.26,5.24c12,.86,24.4,1,35.17-5.64a36.28,36.28,0,0,0,6.16-4.73c.74-.69,1.42-1.37,2.11-2.11a68.67,68.67,0,0,0,6.78-8.38,35.47,35.47,0,0,0,5.76-16.47c.17-1.77.28-3.48.28-5.13C163.31,149.59,160,155,155.45,159.28Z"/><path class="cls-2" d="M173.34,83c3,.8,8.16.74,11.69,2.05-6.38-6-10-14.93-15.39-22.17,7.92-12.26,5.19-38.59.17-46.86-4.56-7.46-7.12-7.8-10.37-.62-2.91,6.27-6.84,8.66-10.78,14.13-3.47,4.91-8.89,12.6-10.26,19.21a129.31,129.31,0,0,0-38.7-1.48l-3.65.34c-1.71-6.32-6.67-13.45-10-18.07C82.14,24,78.21,21.63,75.3,15.36,72,8.23,69.49,8.57,64.93,16c-5.07,8.21-7.75,34.6.17,46.86C59.74,70,56.15,79,49.77,85c3.53-1.31,8.66-1.19,11.68-2-3.82,4.9-7.29,9.18-9.86,14.2a37.34,37.34,0,0,0-3.36,9.29,59.6,59.6,0,0,0,7.69-3.65c-4.1,7.75-6,25.08,1.83,31.63a17.79,17.79,0,0,1,3.59-6.89c.74,2.85.68,5.53,2.17,8.38.91,1.76,3.36,6.32,4.9,9.34.57,1.09,1,2,1.19,2.45,1.89,4.34,6.33,8.44,9.75,11.63a59.88,59.88,0,0,0,8.15,6.56C82.83,159.23,66.81,132,77.3,117c2.56-3.65,6-4.28,8.49-4.62C75,105,71.6,98,71.6,91.22c-.06-7.12,3.08-23.59,16.47-23.94,17.22-.45,23.77,16.19,25.25,21.72.63-2.28,3.25-5.41,3.65-8.72v0c.4,3.31,3,6.44,3.65,8.72,2.28-7.41,8-23.25,24.34-23.48.51,0,1,0,1.54,0a13.32,13.32,0,0,1,7.24,3.08c6.67,5.53,9.06,16.82,8.66,22.06-.4,6.67-3.76,14.14-14.19,19.84,2.45.34,6.1,3.13,8.43,6.44,11.18,16-5.53,42.69-10.2,49.25-.11.11-.23.17-.34.28a58.77,58.77,0,0,0,9.35-7.24c4.56-4.27,7.81-9.69,11-15.05.68-1.19,1.37-2.33,2.05-3.47,1.71-2.8,2.11-6.22,3.93-8.89,1.66,1.36,1.54,4.16,1.54,6.21A48,48,0,0,0,179.39,127c1.25-4,3.36-7.86,3.36-12.14,0-2.62-1.31-10.66-3.88-12.08a50.37,50.37,0,0,0,7.7,3.65,37.34,37.34,0,0,0-3.36-9.29C180.64,92.14,177.16,87.8,173.34,83ZM67,23.05c.23,0,.46-.05.68-.05,5.87.05,11.29,12,14.77,15.9.74.85,1.76,2,2.79,3.3,2.45,3.14,8,9.75,6.21,14.08C90.07,59.76,85.28,60,82.2,61c-2.45.8-3.53,2.91-5.76,3.77-5.75,2.28-7.92-2.51-9.34-7C63.68,47.11,64.3,33.94,67,23.05Zm76,32.61c-.06-5,3.42-9.69,6.38-13.4,1-1.31,2-2.45,2.79-3.3C155.73,35,161.09,23.05,167,23.05c.23,0,.45.06.68.06,2.74,10.83,3.36,24,0,34.77-1.37,4.33-3,9.4-8.66,7.07-1.83-.74-3.31-2.4-5.13-3.08C149.92,60.5,143.19,61.24,143.08,55.66Z"/><path class="cls-7" d="M76.39,64.83c2.22-.91,3.3-3,5.75-3.76,3.08-1,7.87-1.2,9.3-4.73,1.76-4.27-3.77-10.94-6.22-14.08-1-1.31-2-2.45-2.79-3.3C79,35,73.59,23.05,67.67,23.05c-.23,0-.46.06-.69.06-2.73,10.83-3.36,24,0,34.77C68.41,62.33,70.63,67.11,76.39,64.83Z"/><path class="cls-7" d="M159,65c5.64,2.33,7.29-2.74,8.66-7.07,3.36-10.77,2.74-23.94,0-34.77-.23,0-.45-.06-.68-.06-5.87.06-11.29,12-14.77,15.91-.74.85-1.76,2-2.79,3.3-3,3.71-6.44,8.44-6.38,13.4.11,5.58,6.84,4.78,10.77,6.21C155.73,62.55,157.21,64.21,159,65Z"/><path class="cls-4" d="M88.3,166.35c9.63,6.21,18.47,9.63,28.61,9.63,9-.45,19.67-1.59,29.19-9.46.11-.11.23-.17.34-.28,4.67-6.56,21.38-33.29,10.2-49.25-2.33-3.36-6-6.16-8.43-6.44,10.43-5.7,13.79-13.17,14.25-19.84.34-5.24-2.05-16.53-8.67-22.06a13.44,13.44,0,0,0-7.24-3.08c-.51,0-1,0-1.53,0C128.71,65.75,123,81.59,120.68,89c-.63-2.28-3.25-5.41-3.65-8.72v0c-.4,3.31-3,6.44-3.65,8.72-1.48-5.53-8-22.17-25.25-21.72-13.34.35-16.47,16.88-16.47,23.94C71.71,98,75,105,85.85,112.37c-2.45.34-5.93,1-8.49,4.62-10.49,15,5.47,42.24,10.14,48.85v0A3.89,3.89,0,0,1,88.3,166.35ZM141,155.69c-9.24,9.92-15.17,7.75-18.07,7.07,4.39-2.62,6.21-3,12.71-9.46,2.85-2.8,8.6-11.06,5.36-19.15C149.86,136.43,145.24,151.13,141,155.69Zm-3-75.81c3.88,0,7,5.87,7,13.11s-3.14,13.11-7,13.11-7-5.87-7-13.11S134.19,79.88,138,79.88Zm-27.75,53.35c6-3.47,26.27-.17,18.06,10C121.08,152.27,95.31,141.84,110.25,133.23ZM95.08,79.88c3.88,0,7,5.87,7,13.11s-3.13,13.11-7,13.11-7-5.87-7-13.11S91.21,79.88,95.08,79.88Z"/><path class="cls-5" d="M128.31,143.27c8.27-10.26-12-13.51-18.06-10C95.31,141.84,121.08,152.27,128.31,143.27Zm-21.14-5c.17-1.48,2.73-3.31,5.64-4.05s5.13-.11,4.9,1.43-2.73,3.3-5.64,4S107,139.73,107.17,138.25Z"/><path class="cls-5" d="M138,106.1c3.88,0,7-5.87,7-13.11s-3.14-13.11-7-13.11-7,5.87-7,13.11S134.19,106.1,138,106.1Zm-4.61-15.33c-1.31-.91-1-3.54.51-5.82s3.88-3.36,5.19-2.45,1,3.54-.52,5.82S134.7,91.68,133.39,90.77Z"/><path class="cls-5" d="M95.08,106.1c3.88,0,7-5.87,7-13.11s-3.13-13.11-7-13.11-7,5.87-7,13.11S91.21,106.1,95.08,106.1Zm-4.5-15.33c-1.31-.91-1-3.54.51-5.82S95,81.59,96.28,82.5s1,3.54-.51,5.82S91.89,91.68,90.58,90.77Z"/><path class="cls-5" d="M141,134.15c3.25,8-2.51,16.35-5.36,19.15-6.44,6.44-8.26,6.84-12.65,9.46,3,.68,8.83,2.85,18.07-7.13C145.24,151.13,149.86,136.43,141,134.15Z"/><path class="cls-8" d="M95.77,88.32c1.59-2.28,1.82-4.85.51-5.82s-3.59.17-5.19,2.45-1.82,4.85-.51,5.82S94.23,90.6,95.77,88.32Z"/><path class="cls-8" d="M138.57,88.32c1.6-2.28,1.83-4.85.52-5.82s-3.59.17-5.19,2.45-1.82,4.85-.51,5.82S137,90.6,138.57,88.32Z"/><path class="cls-8" d="M112.13,139.62c2.9-.74,5.41-2.57,5.64-4.05s-2-2.11-4.9-1.42-5.42,2.56-5.65,4S109.16,140.36,112.13,139.62Z"/><path class="cls-8" d="M161,190a18.29,18.29,0,0,0-7.58,2.16c-6.44,3.6-8.38,10.83-6.95,17.56a16.26,16.26,0,0,0,.8,2.79c1.76,4.91,5.3,9.18,10.14,11.06.23.06.46.17.69.23a25.21,25.21,0,0,0,1.76-3.48c.63-1.88,1.2-3.82,1.88-5.7a3.32,3.32,0,0,1,1.26-1.88c1.88,3.59.45,7.81-.63,11.4-.06.12-.06.29-.11.4a18.64,18.64,0,0,0,6.61-1c0-.05.06-.11.06-.17.57-1.48,1.53-2.56,2-4.1.62-1.88,1.19-3.82,1.88-5.7a3.23,3.23,0,0,1,1.25-1.88c1.54,2.91.91,6.21,0,9.29a19.1,19.1,0,0,0,2.34-1.6c9.69-7.06,8.72-16.3,1-24.11a25,25,0,0,0-3.37-2.85,15.92,15.92,0,0,0-8.78-2.62C164.05,189.78,162.63,189.83,161,190Z"/><path class="cls-2" d="M174.14,211.67a3.23,3.23,0,0,0-1.25,1.88c-.74,1.88-1.26,3.82-1.88,5.7-.52,1.54-1.48,2.62-2,4.1,0,.06-.06.11-.06.17a28.46,28.46,0,0,0,5.24-2.51C175.05,217.94,175.68,214.63,174.14,211.67Z"/><path class="cls-2" d="M163.08,212.75a3.27,3.27,0,0,0-1.25,1.88c-.74,1.88-1.25,3.82-1.88,5.7a25.27,25.27,0,0,1-1.77,3.48,14.46,14.46,0,0,0,4.16.74,3.34,3.34,0,0,1,.12-.4C163.54,220.5,165,216.34,163.08,212.75Z"/><path class="cls-8" d="M82.66,192.11A18.29,18.29,0,0,0,75.08,190a42.35,42.35,0,0,0-4.56-.12,16.41,16.41,0,0,0-8.9,2.85,25.63,25.63,0,0,0-3.07,2.63c-7.7,7.81-8.67,17,1,24.11.8.57,1.6,1.08,2.34,1.59-.91-3.07-1.54-6.38,0-9.29a3.26,3.26,0,0,1,1.25,1.88c.74,1.88,1.26,3.82,1.88,5.7.52,1.54,1.49,2.63,2.06,4.11,0,.05.05.11.05.17a17.38,17.38,0,0,0,6.62,1,3.11,3.11,0,0,0-.12-.39c-1.08-3.6-2.51-7.81-.63-11.4a3.24,3.24,0,0,1,1.26,1.88c.74,1.88,1.25,3.82,1.88,5.7a24.6,24.6,0,0,0,1.77,3.47c.22-.05.45-.17.68-.22,4.85-1.89,8.38-6.16,10.15-11.06a21.43,21.43,0,0,0,.79-2.8C91,202.94,89.1,195.71,82.66,192.11Z"/><path class="cls-2" d="M65.16,219.3c-.63-1.88-1.2-3.82-1.88-5.7A3.32,3.32,0,0,0,62,211.72c-1.54,2.91-.91,6.22,0,9.29a27.07,27.07,0,0,0,5.25,2.51c0-.06-.06-.11-.06-.17C66.64,221.93,65.61,220.79,65.16,219.3Z"/><path class="cls-2" d="M74.34,214.63a3.29,3.29,0,0,0-1.26-1.88c-1.88,3.59-.45,7.81.63,11.4.06.11.06.28.11.4a16.39,16.39,0,0,0,4.16-.74,25.21,25.21,0,0,1-1.76-3.48C75.59,218.39,75.08,216.51,74.34,214.63Z"/><circle class="cls-6" cx="117.73" cy="192.48" r="5.61"/><circle class="cls-9" cx="117.73" cy="192.48" r="4.83"/><path class="cls-8" d="M118.83,191.65h.55s.05,0,.05,0a3,3,0,0,0-.06.4s0,.05-.06.05h-.8a.1.1,0,0,0-.08.05c-.09.14-.17.28-.25.43s0,0,0,0h1.06s.06,0,0,.06a2.76,2.76,0,0,0-.06.4s0,0-.06,0H118s0,0-.06.05a6.1,6.1,0,0,0-.27,1.12c0,.18,0,.36-.08.54s0,0,0,0h-.9s0,0,0,0a9.31,9.31,0,0,1,.26-1.36l.12-.36h-.62s0,0,0,0,.05-.29.07-.44,0,0,0,0h.75a.06.06,0,0,0,0,0c.08-.17.19-.32.29-.49h-1s0,0,0-.05,0-.27.06-.4,0,0,.06,0h1.25a.1.1,0,0,0,.08,0,10.33,10.33,0,0,1,.7-.77l0,0h-2.42s0,0,0-.05l.09-.67s0,0,.06,0h3.32s0,0,0,0c0,.22-.06.44-.1.67a.09.09,0,0,1,0,.07,9.11,9.11,0,0,0-.73.79Z"/></svg>