<svg id="Layer_1" data-name="Layer 1" xmlns="http://www.w3.org/2000/svg" viewBox="0 0 192 192"><defs><style>.cls-1{fill:#45484c;}.cls-2{fill:#d3d3d3;}.cls-3{fill:#fefefe;}.cls-4{fill:#0b0808;}.cls-5,.cls-8{fill:#f15a29;}.cls-6{fill:#959595;}.cls-7{fill:#fff;}.cls-8{stroke:#fff;stroke-miterlimit:10;stroke-width:0.5px;}</style></defs><path class="cls-1" d="M126.87,148.42a34.3,34.3,0,0,1-5.43,4.18c-2.31,3.92-4.78,10.31-6.59,15.69-1.26,3.67-2.16,6.84-2.57,8.4,0,0-.15.61-.25,1.06a.18.18,0,0,1,0,.15c2.37-5.58,9.71-12.93,16.6-15.49a16.22,16.22,0,0,1,6.69-1.92,34.65,34.65,0,0,1,3.88-.1,14.61,14.61,0,0,1,7.75,2.32c-.31-1.31-.61-2.67-1-4-2.41-9-5.58-16.09-11.22-19.62a51.74,51.74,0,0,1-6,7.4C128.13,147.16,127.53,147.82,126.87,148.42Z"/><path class="cls-2" d="M79.84,167.74c1.35,3.87,2.36,7.29,2.81,8.95,0,0,.15.71.25,1.16H112s0-.1,0-.15c.1-.45.25-1.06.25-1.06.41-1.56,1.36-4.73,2.57-8.4A64.85,64.85,0,0,1,79.84,167.74Z"/><path class="cls-3" d="M114.85,168.25c1.81-5.39,4.28-11.78,6.59-15.7-9.51,5.79-20.43,5.69-31,5a43.54,43.54,0,0,1-17-4.63c2.26,3.68,4.62,9.66,6.39,14.84A64.87,64.87,0,0,0,114.85,168.25Z"/><path class="cls-3" d="M112,177.85h10.47c-1.26-5.94.45-12.37,6.13-15.49-6.84,2.51-14.18,9.91-16.6,15.49,0,0,0-.1,0-.15a.25.25,0,0,1,0,.15Z"/><path class="cls-1" d="M59.46,160.39a16.17,16.17,0,0,1,6.69,1.92c6.89,2.56,14.24,10,16.6,15.49h.15c-.1-.45-.25-1.16-.25-1.16-.45-1.66-1.46-5.08-2.81-8.95-1.82-5.18-4.13-11.17-6.39-14.84a37.84,37.84,0,0,1-6.39-4.08c-1-.8-2-1.66-3-2.56a43.51,43.51,0,0,1-5.48-6.34c-4.88,3.72-7.75,10.41-10,18.71-.35,1.41-.7,2.77-1,4.18a14.12,14.12,0,0,1,7.85-2.52C56.69,160.24,58,160.29,59.46,160.39Z"/><path class="cls-3" d="M66.1,162.31c5.69,3.17,7.4,9.55,6.14,15.49H82.7C80.34,172.27,73,164.87,66.1,162.31Z"/><path class="cls-4" d="M112,177.85H72.24a14.34,14.34,0,0,1-.71,2.47H123.2a20,20,0,0,1-.7-2.47Z"/><path class="cls-5" d="M130.34,133.33a54.77,54.77,0,0,1-8.25,6.39c-8.4,6.94-17.86,7.95-25.75,8.35-8.91,0-16.76-3-25.26-8.5l-.65-.46v-.05a52.52,52.52,0,0,1-7.3-5.73c-3-2.82-6.94-6.44-8.6-10.26a22.73,22.73,0,0,0-1.06-2.17,32.72,32.72,0,0,0,1.46,12.18,28.94,28.94,0,0,0,3.73,6.79,46.78,46.78,0,0,0,5.48,6.34c1,.9,2,1.76,3,2.56a39,39,0,0,0,6.39,4.08,44.54,44.54,0,0,0,17,4.63c10.62.75,21.53.85,31-5a32.17,32.17,0,0,0,5.43-4.18c.66-.6,1.26-1.21,1.87-1.86a59.59,59.59,0,0,0,6-7.4,31.1,31.1,0,0,0,5.08-14.54c.15-1.56.25-3.06.25-4.52C137.29,124.78,134.37,129.56,130.34,133.33Z"/><path class="cls-1" d="M146.14,66c2.67.7,7.2.65,10.31,1.81-5.63-5.34-8.85-13.18-13.58-19.57,7-10.82,4.58-34.06.15-41.36-4-6.59-6.29-6.89-9.15-.55-2.57,5.53-6,7.65-9.51,12.48-3.07,4.32-7.85,11.12-9.06,16.95a114.63,114.63,0,0,0-34.16-1.31l-3.22.3c-1.51-5.58-5.88-11.87-8.8-15.94-3.47-4.83-6.94-7-9.51-12.48-2.92-6.29-5.13-6-9.15.55-4.48,7.25-6.85,30.54.15,41.36-4.73,6.34-7.9,14.23-13.54,19.52,3.12-1.16,7.65-1.06,10.32-1.81C44,70.24,41,74,38.68,78.44a33.1,33.1,0,0,0-3,8.2,52.14,52.14,0,0,0,6.79-3.22c-3.63,6.84-5.29,22.14,1.61,27.92a15.63,15.63,0,0,1,3.17-6.08c.65,2.51.6,4.88,1.91,7.39.8,1.56,3,5.59,4.32,8.25a22.73,22.73,0,0,1,1.06,2.17c1.66,3.82,5.58,7.44,8.6,10.26a52.85,52.85,0,0,0,7.2,5.78c-4.13-5.83-18.26-29.88-9-43.11,2.27-3.22,5.34-3.77,7.5-4.08-9.56-6.48-12.53-12.67-12.53-18.66C56.29,67,59.06,52.43,70.88,52.13c15.19-.4,21,14.29,22.29,19.17.55-2,2.86-4.78,3.22-7.7v0c.35,2.92,2.66,5.69,3.22,7.7,2-6.54,7.09-20.53,21.48-20.73a12.46,12.46,0,0,1,1.36,0,11.72,11.72,0,0,1,6.39,2.72c5.88,4.88,8,14.84,7.64,19.47-.35,5.88-3.32,12.47-12.52,17.51,2.16.3,5.38,2.76,7.44,5.68,9.86,14.09-4.88,37.68-9,43.47-.1.1-.21.15-.31.25a51.71,51.71,0,0,0,8.25-6.39c4-3.77,6.9-8.55,9.71-13.28.61-1.06,1.21-2.07,1.81-3.07,1.51-2.47,1.87-5.49,3.48-7.85,1.46,1.21,1.35,3.67,1.35,5.48a41.55,41.55,0,0,0,4.78-9.81c1.11-3.52,3-6.94,3-10.71,0-2.32-1.16-9.41-3.42-10.67a43.61,43.61,0,0,0,6.79,3.22,32.71,32.71,0,0,0-3-8.2C152.58,74.07,149.51,70.24,146.14,66ZM52.32,13.09c.2,0,.4-.05.6-.05,5.18.05,10,10.62,13,14,.65.75,1.56,1.76,2.47,2.92,2.16,2.76,7,8.6,5.48,12.42-1.26,3.07-5.48,3.27-8.2,4.18-2.16.7-3.12,2.56-5.08,3.32-5.08,2-7-2.22-8.25-6.14C49.35,34.32,49.9,22.7,52.32,13.09Zm67.11,28.78c-.05-4.38,3-8.55,5.63-11.82.91-1.16,1.81-2.17,2.47-2.92,3.07-3.47,7.79-14,13-14,.2,0,.4.05.6.05,2.42,9.56,3,21.18,0,30.69-1.21,3.82-2.67,8.3-7.65,6.24-1.61-.66-2.91-2.11-4.52-2.72C125.46,46.14,119.53,46.8,119.43,41.87Z"/><path class="cls-6" d="M60.57,50c2-.81,2.92-2.67,5.08-3.32,2.72-.86,6.94-1.06,8.2-4.18,1.56-3.77-3.32-9.66-5.48-12.42-.91-1.16-1.82-2.17-2.47-2.92-3.07-3.47-7.8-14-13-14-.2,0-.4.05-.6.05-2.42,9.56-3,21.18,0,30.69C53.52,47.75,55.49,52,60.57,50Z"/><path class="cls-6" d="M133.51,50.07c5,2.06,6.44-2.42,7.65-6.24,3-9.51,2.42-21.13,0-30.69-.2,0-.4-.05-.6-.05-5.18.05-10,10.62-13,14-.66.75-1.56,1.76-2.47,2.92-2.61,3.27-5.68,7.44-5.63,11.82.1,4.93,6,4.22,9.51,5.48C130.6,48,131.9,49.41,133.51,50.07Z"/><path class="cls-3" d="M71.08,139.57c8.5,5.48,16.3,8.5,25.26,8.5,7.89-.4,17.35-1.41,25.75-8.35.1-.1.21-.15.31-.25,4.12-5.79,18.86-29.38,9-43.47-2.06-3-5.28-5.43-7.44-5.68,9.2-5,12.17-11.63,12.57-17.51.3-4.63-1.81-14.59-7.64-19.47a11.88,11.88,0,0,0-6.39-2.72,12.46,12.46,0,0,0-1.36,0c-14.39.2-19.47,14.19-21.48,20.73-.56-2-2.87-4.78-3.22-7.7v0c-.36,2.92-2.67,5.69-3.22,7.7-1.31-4.88-7-19.57-22.29-19.17C59.16,52.43,56.39,67,56.39,73.26c0,6,3,12.18,12.53,18.66-2.16.31-5.23.86-7.5,4.08-9.25,13.23,4.83,37.28,9,43.11v0A3.22,3.22,0,0,1,71.08,139.57Zm46.54-9.41c-8.15,8.75-13.39,6.84-16,6.24,3.87-2.32,5.48-2.67,11.22-8.35,2.51-2.47,7.59-9.76,4.73-16.91C125.41,113.15,121.34,126.13,117.62,130.16ZM115,63.25c3.42,0,6.19,5.18,6.19,11.57S118.37,86.39,115,86.39s-6.19-5.18-6.19-11.57S111.58,63.25,115,63.25Zm-24.5,47.09c5.28-3.07,23.19-.15,16,8.85C100,127.14,77.27,117.93,90.45,110.34ZM77.07,63.25c3.42,0,6.19,5.18,6.19,11.57s-2.77,11.57-6.19,11.57-6.19-5.18-6.19-11.57S73.65,63.25,77.07,63.25Z"/><path class="cls-4" d="M106.4,119.19c7.29-9-10.62-11.92-16-8.85C77.27,117.93,100,127.14,106.4,119.19Zm-18.67-4.43c.15-1.3,2.42-2.91,5-3.57s4.53-.1,4.33,1.26-2.41,2.92-5,3.57S87.58,116.07,87.73,114.76Z"/><path class="cls-4" d="M115,86.39c3.42,0,6.19-5.18,6.19-11.57S118.37,63.25,115,63.25s-6.19,5.18-6.19,11.57S111.58,86.39,115,86.39Zm-4.07-13.53c-1.16-.81-.91-3.12.45-5.13s3.42-3,4.58-2.17.9,3.12-.46,5.14S112,73.66,110.88,72.86Z"/><path class="cls-4" d="M77.07,86.39c3.42,0,6.19-5.18,6.19-11.57s-2.77-11.57-6.19-11.57-6.19,5.18-6.19,11.57S73.65,86.39,77.07,86.39Zm-4-13.53c-1.15-.81-.9-3.12.46-5.13s3.42-3,4.57-2.17.91,3.12-.45,5.14S74.25,73.66,73.09,72.86Z"/><path class="cls-4" d="M117.57,111.14c2.86,7.1-2.22,14.44-4.73,16.91-5.69,5.68-7.3,6-11.17,8.35,2.61.6,7.8,2.51,16-6.29C121.34,126.13,125.41,113.15,117.57,111.14Z"/><path class="cls-7" d="M77.67,70.7c1.41-2,1.61-4.28.45-5.14s-3.16.15-4.57,2.17-1.61,4.27-.46,5.13S76.31,72.71,77.67,70.7Z"/><path class="cls-7" d="M115.45,70.7c1.41-2,1.61-4.28.46-5.14s-3.17.15-4.58,2.17-1.61,4.27-.45,5.13S114,72.71,115.45,70.7Z"/><path class="cls-7" d="M92.11,116c2.57-.65,4.78-2.26,5-3.57s-1.76-1.86-4.33-1.26-4.77,2.27-5,3.57S89.49,116.63,92.11,116Z"/><path class="cls-7" d="M135.27,160.39a16.22,16.22,0,0,0-6.69,1.92c-5.68,3.17-7.39,9.55-6.13,15.49a15.25,15.25,0,0,0,.7,2.47,16.1,16.1,0,0,0,9,9.76c.2.05.4.15.6.2a22.69,22.69,0,0,0,1.56-3.07c.55-1.66,1-3.37,1.66-5a2.83,2.83,0,0,1,1.11-1.66c1.66,3.17.4,6.89-.56,10.06,0,.1,0,.25-.1.35a16.48,16.48,0,0,0,5.84-.91c0-.05.05-.1.05-.15.5-1.3,1.36-2.26,1.81-3.62.55-1.66,1-3.37,1.66-5a2.86,2.86,0,0,1,1.11-1.66c1.35,2.57.8,5.48,0,8.2a16.45,16.45,0,0,0,2.06-1.41c8.55-6.24,7.7-14.39.9-21.28a22,22,0,0,0-3-2.51,14.06,14.06,0,0,0-7.75-2.32C137.94,160.24,136.68,160.29,135.27,160.39Z"/><path class="cls-1" d="M146.85,179.56a2.86,2.86,0,0,0-1.11,1.66c-.66,1.66-1.11,3.37-1.66,5-.45,1.36-1.31,2.32-1.81,3.62,0,0-.05.1-.05.16a25.78,25.78,0,0,0,4.63-2.22C147.65,185.1,148.2,182.18,146.85,179.56Z"/><path class="cls-1" d="M137.09,180.52a2.83,2.83,0,0,0-1.11,1.66c-.66,1.66-1.11,3.37-1.66,5a22.11,22.11,0,0,1-1.56,3.07,12.55,12.55,0,0,0,3.67.65,3.19,3.19,0,0,1,.1-.35C137.49,187.36,138.75,183.69,137.09,180.52Z"/><path class="cls-7" d="M66.1,162.31a16.17,16.17,0,0,0-6.69-1.92,37.21,37.21,0,0,0-4-.1,14.38,14.38,0,0,0-7.85,2.52,22.29,22.29,0,0,0-2.72,2.31c-6.79,6.9-7.65,15,.91,21.28.7.51,1.41,1,2.06,1.41-.81-2.71-1.36-5.63,0-8.2a3,3,0,0,1,1.11,1.66c.65,1.66,1.1,3.37,1.66,5,.45,1.36,1.3,2.32,1.81,3.62,0,.05.05.11.05.16a15.52,15.52,0,0,0,5.83.9,3.19,3.19,0,0,0-.1-.35c-.95-3.17-2.21-6.89-.55-10.06a2.92,2.92,0,0,1,1.11,1.66c.65,1.66,1.1,3.37,1.66,5a21.07,21.07,0,0,0,1.56,3.07c.2-.05.4-.15.6-.2a16.08,16.08,0,0,0,9-9.76,18.44,18.44,0,0,0,.71-2.47C73.5,171.86,71.79,165.48,66.1,162.31Z"/><path class="cls-1" d="M50.66,186.3c-.56-1.66-1.06-3.37-1.66-5a2.91,2.91,0,0,0-1.11-1.66c-1.36,2.57-.81,5.49,0,8.2A24.27,24.27,0,0,0,52.52,190c0-.06-.05-.11-.05-.16C52,188.62,51.06,187.61,50.66,186.3Z"/><path class="cls-1" d="M58.76,182.18a2.92,2.92,0,0,0-1.11-1.66c-1.66,3.17-.4,6.89.55,10.06,0,.1,0,.25.1.35a14.53,14.53,0,0,0,3.68-.65,21.07,21.07,0,0,1-1.56-3.07C59.86,185.5,59.41,183.84,58.76,182.18Z"/><circle class="cls-5" cx="97.05" cy="162.63" r="4.95"/><circle class="cls-8" cx="97.05" cy="162.63" r="4.27"/><path class="cls-7" d="M98,161.9h.48s0,0,0,0,0,.24,0,.36,0,0,0,0h-.7a.07.07,0,0,0-.07,0,2.88,2.88,0,0,0-.22.38l0,0h.94s.05,0,0,.05,0,.24,0,.36,0,0-.06,0h-1a.05.05,0,0,0-.06,0,4.9,4.9,0,0,0-.23,1c0,.16,0,.32-.08.48s0,0,0,0h-.8s0,0,0,0a8.19,8.19,0,0,1,.23-1.2c0-.11.07-.21.11-.32h-.55s0,0,0,0l.06-.38s0,0,0,0h.66s0,0,0,0,.17-.28.26-.43H96s0,0,0,0,0-.23,0-.35,0,0,0,0h1.11a.06.06,0,0,0,.06,0c.2-.24.41-.47.62-.68l0,0H95.74s0,0,0,0l.09-.59s0,0,0,0h2.93s0,0,0,0l-.09.59s0,0,0,.06a8.68,8.68,0,0,0-.65.7Z"/></svg>